<?xml version="1.0" encoding="UTF-8" standalone="no"?>
<!-- Created with Inkscape (http://www.inkscape.org/) -->

<svg
   width="210mm"
   height="297mm"
   viewBox="0 0 210 297"
   version="1.1"
   id="svg5"
   inkscape:version="1.1 (c68e22c387, 2021-05-23)"
   sodipodi:docname="chrisso stickers.svg"
   xmlns:inkscape="http://www.inkscape.org/namespaces/inkscape"
   xmlns:sodipodi="http://sodipodi.sourceforge.net/DTD/sodipodi-0.dtd"
   xmlns="http://www.w3.org/2000/svg"
   xmlns:svg="http://www.w3.org/2000/svg">
  <sodipodi:namedview
     id="namedview7"
     pagecolor="#505050"
     bordercolor="#eeeeee"
     borderopacity="1"
     inkscape:pageshadow="0"
     inkscape:pageopacity="0"
     inkscape:pagecheckerboard="0"
     inkscape:document-units="mm"
     showgrid="false"
     inkscape:zoom="0.81134749"
     inkscape:cx="333.39599"
     inkscape:cy="703.15124"
     inkscape:window-width="1920"
     inkscape:window-height="1057"
     inkscape:window-x="-8"
     inkscape:window-y="-8"
     inkscape:window-maximized="1"
     inkscape:current-layer="layer1" />
  <defs
     id="defs2" />
  <g
     inkscape:label="Layer 1"
     inkscape:groupmode="layer"
     id="layer1">
    <rect
       style="opacity:1;fill:#000000;fill-opacity:1;stroke:#d40000;stroke-width:5;stroke-linejoin:miter;stroke-miterlimit:4;stroke-dasharray:none;stroke-opacity:1;paint-order:stroke fill markers"
       id="rect16505"
       width="100.30667"
       height="48.423912"
       x="53.958073"
       y="178.0155"
       inkscape:export-filename="C:\Users\justi\Desktop\sum chirsso stickers.png"
       inkscape:export-xdpi="305.21799"
       inkscape:export-ydpi="305.21799" />
    <g
       id="g14873"
       style="stroke:#d40000"
       inkscape:export-filename="C:\Users\justi\Desktop\sum chirsso stickers.png"
       inkscape:export-xdpi="305.21799"
       inkscape:export-ydpi="305.21799">
      <rect
         style="fill:#000000;stroke:#d40000;stroke-width:6.56082;stroke-linejoin:miter;stroke-miterlimit:4;stroke-dasharray:none;paint-order:stroke fill markers"
         id="rect13233"
         width="182.61723"
         height="46.526299"
         x="68.510735"
         y="123.82782"
         transform="matrix(1,0,-0.30741509,0.95157552,0,0)" />
      <rect
         style="fill:#000000;stroke-width:6.53197268;stroke-linejoin:miter;paint-order:stroke fill markers;stroke:#d40000;stroke-miterlimit:4;stroke-dasharray:none"
         id="rect1968"
         width="164.8719"
         height="46.118008"
         x="63.421875"
         y="122.74117"
         transform="matrix(1,0,-0.28000002,0.95999999,0,0)" />
    </g>
    <path
       style="fill:none;fill-opacity:1;stroke:#ff0000;stroke-width:1.1;stroke-linejoin:miter;stroke-miterlimit:4;stroke-dasharray:none;stroke-opacity:1;paint-order:stroke fill markers;opacity:0.29166667"
       d="m 28.021902,152.62167 c 1.27171,0.6274 3.060814,-0.11998 4.251287,-0.51079 3.304199,-1.08472 6.485866,-2.42778 9.352828,-4.42695 0.610481,-0.4257 1.164255,-0.93098 1.700514,-1.44727 0.204296,-0.19669 0.352941,-0.44495 0.510153,-0.68107 0.01572,-0.0236 0.02752,-0.092 0,-0.0851 -0.711013,0.17798 -2.985343,3.45447 -3.145949,3.66074 -2.458533,3.15733 -2.151694,2.53448 -4.336311,6.04449 -0.53734,0.86333 -1.030001,1.75386 -1.530464,2.63913 -0.349867,0.61889 -0.721218,1.22793 -1.020308,1.87294 -0.0726,0.15657 -0.256569,0.52799 -0.08503,0.51081 1.135093,-0.11365 4.314521,-2.11305 4.761438,-2.38375 1.318676,-0.79872 2.649277,-1.58295 3.911183,-2.46887 1.206938,-0.84731 2.36983,-1.76031 3.486055,-2.72428 1.153762,-0.99637 2.220536,-2.08964 3.316001,-3.14993 0.605182,-0.58575 1.215656,-1.16758 1.785542,-1.78781 0.08581,-0.0934 0.286289,-0.39114 0.170051,-0.34053 -2.575624,1.12125 -5.948385,3.77296 -7.737339,5.87421 -0.504071,0.59206 -2.259128,2.8343 -1.955592,4.17154 0.129684,0.57134 1.420887,0.31968 2.210668,0 2.050908,-0.83013 2.751261,-1.48939 4.506363,-2.72427 0.366652,-0.25797 0.743964,-0.50085 1.105334,-0.7662 0.06464,-0.0474 0.09835,-0.13436 0.170052,-0.17027 0.02536,-0.0127 -0.0069,0.0577 0,0.0851 0.05004,0.20043 0.122793,0.39483 0.170051,0.59594 0.133719,0.56902 0.140623,1.1242 0.510155,1.61753 0.180767,0.24133 0.426777,0.43281 0.680205,0.59593 0.159927,0.10297 0.698367,0.22849 0.510155,0.25541 -1.170539,0.16743 -6.131304,-0.64653 -6.461953,-0.68107 -4.546135,-0.47498 -9.702554,-0.88345 -14.199296,-0.7662 -2.616406,0.0682 -5.238465,0.26378 -7.822366,0.68105 -0.19785,0.0319 -0.247663,0.47871 -0.08503,0.59595 1.665428,1.20064 5.888458,1.64521 7.227186,1.78781 2.315288,0.24661 4.644588,0.36335 6.972108,0.42566 4.342852,0.11627 12.750523,0.0763 17.175197,-0.51081 0.405987,-0.0539 6.966002,-0.71354 7.822365,-2.97966 0.201849,-0.53414 -0.346122,-1.14505 -0.76523,-1.53241 -2.424953,-2.24126 -7.831634,-3.30077 -10.968318,-3.83101 -0.786979,-0.13304 -1.588405,-0.15924 -2.380722,-0.2554 -0.143464,-0.0175 -0.559306,-0.0315 -0.425127,-0.0851 0.26446,-0.10593 0.566937,-0.0558 0.850257,-0.0851 1.71783,-0.17794 3.647012,-0.20069 5.271594,-0.85134 2.407479,-0.96421 2.623948,-3.58893 1.870566,-5.78909 -0.209812,-0.61272 -0.602447,-1.14724 -0.935282,-1.70267 -0.0146,-0.0243 0,0.0567 0,0.0851 0,0.45404 0,0.90808 0,1.36213 0,1.30538 0.04392,2.61151 0,3.91614 -0.04115,1.22252 -0.150747,2.44201 -0.255078,3.66075 -0.113025,1.32031 -0.835112,3.4104 0.935282,4.00128"
       id="path11605"
       inkscape:export-filename="C:\Users\justi\Desktop\sum chirsso stickers.png"
       inkscape:export-xdpi="305.21799"
       inkscape:export-ydpi="305.21799" />
    <path
       d="m 34.936161,131.20575 v -4.99532 l 1.979077,2.84691 h 1.238246 l 1.936744,-2.84691 v 4.99532 h 1.481662 v -7.40831 h -1.428746 l -2.624658,3.58774 -2.582325,-3.58774 h -1.481662 v 7.40831 z"
       id="path10238"
       style="font-size:10.5833px;line-height:1.25;font-family:Furore;-inkscape-font-specification:'Furore, Normal';text-align:end;letter-spacing:0px;word-spacing:0px;text-anchor:end;fill:#f9f9f9;stroke-width:0.264583"
       inkscape:export-filename="C:\Users\justi\Desktop\sum chirsso stickers.png"
       inkscape:export-xdpi="305.21799"
       inkscape:export-ydpi="305.21799" />
    <path
       d="m 44.111868,129.72409 v -4.44499 h 3.693571 v 4.44499 z m 4.434402,1.48166 0.730248,-0.73025 v -5.92665 l -0.730248,-0.75141 h -5.185816 l -0.730248,0.75141 v 5.92665 l 0.730248,0.73025 z"
       id="path10240"
       style="font-size:10.5833px;line-height:1.25;font-family:Furore;-inkscape-font-specification:'Furore, Normal';text-align:end;letter-spacing:0px;word-spacing:0px;text-anchor:end;fill:#f9f9f9;stroke-width:0.264583"
       inkscape:export-filename="C:\Users\justi\Desktop\sum chirsso stickers.png"
       inkscape:export-xdpi="305.21799"
       inkscape:export-ydpi="305.21799" />
    <path
       d="m 54.091907,131.20575 v -5.92665 h 2.571742 v -1.48166 h -6.646312 v 1.48166 h 2.592908 v 5.92665 z"
       id="path10242"
       style="font-size:10.5833px;line-height:1.25;font-family:Furore;-inkscape-font-specification:'Furore, Normal';text-align:end;letter-spacing:0px;word-spacing:0px;text-anchor:end;fill:#f9f9f9;stroke-width:0.264583"
       inkscape:export-filename="C:\Users\justi\Desktop\sum chirsso stickers.png"
       inkscape:export-xdpi="305.21799"
       inkscape:export-ydpi="305.21799" />
    <path
       d="m 58.886133,131.20575 v -2.95274 h 3.693572 v 2.95274 h 1.471078 v -7.40831 h -1.471078 v 2.97391 h -3.693572 v -2.97391 h -1.481662 v 7.40831 z"
       id="path10244"
       style="font-size:10.5833px;line-height:1.25;font-family:Furore;-inkscape-font-specification:'Furore, Normal';text-align:end;letter-spacing:0px;word-spacing:0px;text-anchor:end;fill:#f9f9f9;stroke-width:0.264583"
       inkscape:export-filename="C:\Users\justi\Desktop\sum chirsso stickers.png"
       inkscape:export-xdpi="305.21799"
       inkscape:export-ydpi="305.21799" />
    <path
       d="m 71.395581,131.20575 v -1.48166 h -4.804818 v -1.47108 h 4.434403 v -1.48166 h -4.434403 v -1.49225 h 4.804818 v -1.48166 h -6.28648 v 7.40831 z"
       id="path10246"
       style="font-size:10.5833px;line-height:1.25;font-family:Furore;-inkscape-font-specification:'Furore, Normal';text-align:end;letter-spacing:0px;word-spacing:0px;text-anchor:end;fill:#f9f9f9;stroke-width:0.264583"
       inkscape:export-filename="C:\Users\justi\Desktop\sum chirsso stickers.png"
       inkscape:export-xdpi="305.21799"
       inkscape:export-ydpi="305.21799" />
    <path
       d="m 73.829719,127.51218 v -2.23308 h 3.693572 v 2.23308 z m 5.164651,3.69357 v -1.48166 l -0.730248,-0.73025 0.730248,-0.74083 v -3.70416 l -0.730248,-0.75141 h -5.916065 v 7.40831 h 1.481662 v -2.21191 h 2.21191 l 0.740831,0.73025 0.740831,0.75141 v 0.73025 z"
       id="path10248"
       style="font-size:10.5833px;line-height:1.25;font-family:Furore;-inkscape-font-specification:'Furore, Normal';text-align:end;letter-spacing:0px;word-spacing:0px;text-anchor:end;fill:#f9f9f9;stroke-width:0.264583"
       inkscape:export-filename="C:\Users\justi\Desktop\sum chirsso stickers.png"
       inkscape:export-xdpi="305.21799"
       inkscape:export-ydpi="305.21799" />
    <path
       d="m 81.534347,131.20575 v -2.95274 h 4.434403 v -1.48166 h -4.434403 v -1.49225 h 4.804818 v -1.48166 h -6.28648 v 7.40831 z"
       id="path10250"
       style="font-size:10.5833px;line-height:1.25;font-family:Furore;-inkscape-font-specification:'Furore, Normal';text-align:end;letter-spacing:0px;word-spacing:0px;text-anchor:end;fill:#f9f9f9;stroke-width:0.264583"
       inkscape:export-filename="C:\Users\justi\Desktop\sum chirsso stickers.png"
       inkscape:export-xdpi="305.21799"
       inkscape:export-ydpi="305.21799" />
    <path
       d="m 87.079991,123.79744 v 6.67806 l 0.730248,0.73025 h 5.185817 l 0.730247,-0.73025 v -6.67806 h -1.471078 v 5.92665 h -3.693572 v -5.92665 z"
       id="path10252"
       style="font-size:10.5833px;line-height:1.25;font-family:Furore;-inkscape-font-specification:'Furore, Normal';text-align:end;letter-spacing:0px;word-spacing:0px;text-anchor:end;fill:#f9f9f9;stroke-width:0.264583"
       inkscape:export-filename="C:\Users\justi\Desktop\sum chirsso stickers.png"
       inkscape:export-xdpi="305.21799"
       inkscape:export-ydpi="305.21799" />
    <path
       d="m 100.70069,131.20575 0.73025,-0.73025 v -1.48166 h -1.471084 v 0.73025 h -3.693571 v -4.44499 h 3.693571 v 0.74083 h 1.471084 v -1.47108 l -0.73025,-0.75141 h -5.185819 l -0.730248,0.75141 v 5.92665 l 0.730248,0.73025 z"
       id="path10254"
       style="font-size:10.5833px;line-height:1.25;font-family:Furore;-inkscape-font-specification:'Furore, Normal';text-align:end;letter-spacing:0px;word-spacing:0px;text-anchor:end;fill:#f9f9f9;stroke-width:0.264583"
       inkscape:export-filename="C:\Users\justi\Desktop\sum chirsso stickers.png"
       inkscape:export-xdpi="305.21799"
       inkscape:export-ydpi="305.21799" />
    <path
       d="m 103.86508,131.20575 v -2.95274 h 2.21191 l 1.48166,1.47108 v 1.48166 h 1.47108 v -2.21191 l -1.47108,-1.48166 1.47108,-1.48166 v -2.23308 h -1.47108 v 1.49225 l -1.48166,1.48166 h -2.21191 v -2.97391 h -1.48166 v 7.40831 z"
       id="path10256"
       style="font-size:10.5833px;line-height:1.25;font-family:Furore;-inkscape-font-specification:'Furore, Normal';text-align:end;letter-spacing:0px;word-spacing:0px;text-anchor:end;fill:#f9f9f9;stroke-width:0.264583"
       inkscape:export-filename="C:\Users\justi\Desktop\sum chirsso stickers.png"
       inkscape:export-xdpi="305.21799"
       inkscape:export-ydpi="305.21799" />
    <path
       d="m 111.46387,131.20575 v -7.40831 h -1.48166 v 7.40831 z"
       id="path10258"
       style="font-size:10.5833px;line-height:1.25;font-family:Furore;-inkscape-font-specification:'Furore, Normal';text-align:end;letter-spacing:0px;word-spacing:0px;text-anchor:end;fill:#f9f9f9;stroke-width:0.264583"
       inkscape:export-filename="C:\Users\justi\Desktop\sum chirsso stickers.png"
       inkscape:export-xdpi="305.21799"
       inkscape:export-ydpi="305.21799" />
    <path
       d="m 119.16851,131.20575 v -7.40831 h -1.47108 v 4.93182 l -3.69357,-4.93182 h -1.48167 v 7.40831 h 1.48167 v -4.9424 l 3.69357,4.9424 z"
       id="path10260"
       style="font-size:10.5833px;line-height:1.25;font-family:Furore;-inkscape-font-specification:'Furore, Normal';text-align:end;letter-spacing:0px;word-spacing:0px;text-anchor:end;fill:#f9f9f9;stroke-width:0.264583"
       inkscape:export-filename="C:\Users\justi\Desktop\sum chirsso stickers.png"
       inkscape:export-xdpi="305.21799"
       inkscape:export-ydpi="305.21799" />
    <path
       d="m 126.14289,131.20575 0.73024,-0.73025 v -3.51365 h -3.33373 v 1.48166 h 1.86266 v 1.28058 h -3.69358 v -4.44499 h 3.69358 v 0.74083 h 1.47107 v -1.47108 l -0.73024,-0.75141 h -5.18582 l -0.73025,0.75141 v 5.92665 l 0.73025,0.73025 z"
       id="path10262"
       style="font-size:10.5833px;line-height:1.25;font-family:Furore;-inkscape-font-specification:'Furore, Normal';text-align:end;letter-spacing:0px;word-spacing:0px;text-anchor:end;fill:#f9f9f9;stroke-width:0.264583"
       inkscape:export-filename="C:\Users\justi\Desktop\sum chirsso stickers.png"
       inkscape:export-xdpi="305.21799"
       inkscape:export-ydpi="305.21799" />
    <path
       d="m 138.08084,131.20575 0.73024,-0.73025 v -1.48166 h -1.47107 v 0.73025 h -3.69358 v -4.44499 h 3.69358 v 0.74083 h 1.47107 v -1.47108 l -0.73024,-0.75141 h -5.18582 l -0.73025,0.75141 v 5.92665 l 0.73025,0.73025 z"
       id="path10264"
       style="font-size:10.5833px;line-height:1.25;font-family:Furore;-inkscape-font-specification:'Furore, Normal';text-align:end;letter-spacing:0px;word-spacing:0px;text-anchor:end;fill:#f9f9f9;stroke-width:0.264583"
       inkscape:export-filename="C:\Users\justi\Desktop\sum chirsso stickers.png"
       inkscape:export-xdpi="305.21799"
       inkscape:export-ydpi="305.21799" />
    <path
       d="m 141.24523,131.20575 v -2.95274 h 3.69357 v 2.95274 h 1.47108 v -7.40831 h -1.47108 v 2.97391 h -3.69357 v -2.97391 h -1.48166 v 7.40831 z"
       id="path10266"
       style="font-size:10.5833px;line-height:1.25;font-family:Furore;-inkscape-font-specification:'Furore, Normal';text-align:end;letter-spacing:0px;word-spacing:0px;text-anchor:end;fill:#f9f9f9;stroke-width:0.264583"
       inkscape:export-filename="C:\Users\justi\Desktop\sum chirsso stickers.png"
       inkscape:export-xdpi="305.21799"
       inkscape:export-ydpi="305.21799" />
    <path
       d="m 148.94986,127.51218 v -2.23308 h 3.69357 v 2.23308 z m 5.16465,3.69357 v -1.48166 l -0.73025,-0.73025 0.73025,-0.74083 v -3.70416 l -0.73025,-0.75141 h -5.91607 v 7.40831 h 1.48167 v -2.21191 h 2.21191 l 0.74083,0.73025 0.74083,0.75141 v 0.73025 z"
       id="path10268"
       style="font-size:10.5833px;line-height:1.25;font-family:Furore;-inkscape-font-specification:'Furore, Normal';text-align:end;letter-spacing:0px;word-spacing:0px;text-anchor:end;fill:#f9f9f9;stroke-width:0.264583"
       inkscape:export-filename="C:\Users\justi\Desktop\sum chirsso stickers.png"
       inkscape:export-xdpi="305.21799"
       inkscape:export-ydpi="305.21799" />
    <path
       d="m 156.65448,131.20575 v -7.40831 h -1.48166 v 7.40831 z"
       id="path10270"
       style="font-size:10.5833px;line-height:1.25;font-family:Furore;-inkscape-font-specification:'Furore, Normal';text-align:end;letter-spacing:0px;word-spacing:0px;text-anchor:end;fill:#f9f9f9;stroke-width:0.264583"
       inkscape:export-filename="C:\Users\justi\Desktop\sum chirsso stickers.png"
       inkscape:export-xdpi="305.21799"
       inkscape:export-ydpi="305.21799" />
    <path
       d="m 163.62888,131.20575 0.73025,-0.73025 v -2.97391 l -0.73025,-0.74083 h -4.4344 v -1.48166 h 3.69357 v 0.74083 h 1.47108 v -1.47108 l -0.73025,-0.75141 h -5.18582 l -0.73024,0.75141 v 3.17499 l 0.73024,0.52917 h 4.44499 v 1.47108 h -3.69357 v -0.73025 h -1.48166 v 1.48166 l 0.73024,0.73025 z"
       id="path10272"
       style="font-size:10.5833px;line-height:1.25;font-family:Furore;-inkscape-font-specification:'Furore, Normal';text-align:end;letter-spacing:0px;word-spacing:0px;text-anchor:end;fill:#f9f9f9;stroke-width:0.264583"
       inkscape:export-filename="C:\Users\justi\Desktop\sum chirsso stickers.png"
       inkscape:export-xdpi="305.21799"
       inkscape:export-ydpi="305.21799" />
    <path
       d="m 171.3335,131.20575 0.73025,-0.73025 v -2.97391 l -0.73025,-0.74083 h -4.4344 v -1.48166 h 3.69357 v 0.74083 h 1.47108 v -1.47108 l -0.73025,-0.75141 h -5.18582 l -0.73024,0.75141 v 3.17499 l 0.73024,0.52917 h 4.44499 v 1.47108 h -3.69357 v -0.73025 h -1.48166 v 1.48166 l 0.73024,0.73025 z"
       id="path10274"
       style="font-size:10.5833px;line-height:1.25;font-family:Furore;-inkscape-font-specification:'Furore, Normal';text-align:end;letter-spacing:0px;word-spacing:0px;text-anchor:end;fill:#f9f9f9;stroke-width:0.264583"
       inkscape:export-filename="C:\Users\justi\Desktop\sum chirsso stickers.png"
       inkscape:export-xdpi="305.21799"
       inkscape:export-ydpi="305.21799" />
    <path
       d="m 174.60373,129.72409 v -4.44499 h 3.69357 v 4.44499 z m 4.43441,1.48166 0.73024,-0.73025 v -5.92665 l -0.73024,-0.75141 h -5.18582 l -0.73025,0.75141 v 5.92665 l 0.73025,0.73025 z"
       id="path10276"
       style="font-size:10.5833px;line-height:1.25;font-family:Furore;-inkscape-font-specification:'Furore, Normal';text-align:end;letter-spacing:0px;word-spacing:0px;text-anchor:end;fill:#f9f9f9;stroke-width:0.264583"
       inkscape:export-filename="C:\Users\justi\Desktop\sum chirsso stickers.png"
       inkscape:export-xdpi="305.21799"
       inkscape:export-ydpi="305.21799" />
    <path
       d="m 45.836947,144.43487 v -2.95274 h 2.211909 l 1.481662,1.47108 v 1.48166 h 1.471079 v -2.21191 l -1.471079,-1.48166 1.471079,-1.48166 v -2.23308 h -1.471079 v 1.49225 l -1.481662,1.48166 h -2.211909 v -2.97391 h -1.481662 v 7.40831 z"
       id="path10278"
       style="font-size:10.5833px;line-height:1.25;font-family:Furore;-inkscape-font-specification:'Furore, Normal';text-align:end;letter-spacing:0px;word-spacing:0px;text-anchor:end;fill:#f9f9f9;stroke-width:0.264583"
       inkscape:export-filename="C:\Users\justi\Desktop\sum chirsso stickers.png"
       inkscape:export-xdpi="305.21799"
       inkscape:export-ydpi="305.21799" />
    <path
       d="m 53.43574,144.43487 v -7.40831 h -1.481662 v 7.40831 z"
       id="path10280"
       style="font-size:10.5833px;line-height:1.25;font-family:Furore;-inkscape-font-specification:'Furore, Normal';text-align:end;letter-spacing:0px;word-spacing:0px;text-anchor:end;fill:#f9f9f9;stroke-width:0.264583"
       inkscape:export-filename="C:\Users\justi\Desktop\sum chirsso stickers.png"
       inkscape:export-xdpi="305.21799"
       inkscape:export-ydpi="305.21799" />
    <path
       d="m 61.140379,144.43487 v -7.40831 h -1.471078 v 4.93182 l -3.693572,-4.93182 h -1.481662 v 7.40831 h 1.481662 v -4.9424 l 3.693572,4.9424 z"
       id="path10282"
       style="font-size:10.5833px;line-height:1.25;font-family:Furore;-inkscape-font-specification:'Furore, Normal';text-align:end;letter-spacing:0px;word-spacing:0px;text-anchor:end;fill:#f9f9f9;stroke-width:0.264583"
       inkscape:export-filename="C:\Users\justi\Desktop\sum chirsso stickers.png"
       inkscape:export-xdpi="305.21799"
       inkscape:export-ydpi="305.21799" />
    <path
       d="m 68.845009,139.24906 -2.211909,-2.2225 h -4.434403 v 7.40831 h 5.916065 l 0.730247,-0.73024 z m -1.471078,3.70415 h -3.693572 v -4.44498 h 2.21191 l 1.481662,1.48166 z"
       id="path10284"
       style="font-size:10.5833px;line-height:1.25;font-family:Furore;-inkscape-font-specification:'Furore, Normal';text-align:end;letter-spacing:0px;word-spacing:0px;text-anchor:end;fill:#f9f9f9;stroke-width:0.264583"
       inkscape:export-filename="C:\Users\justi\Desktop\sum chirsso stickers.png"
       inkscape:export-xdpi="305.21799"
       inkscape:export-ydpi="305.21799" />
    <path
       d="m 75.713555,144.43487 0.730247,-0.73024 v -3.51366 h -3.333739 v 1.48166 h 1.862661 v 1.28058 h -3.693572 v -4.44498 h 3.693572 v 0.74083 h 1.471078 v -1.47108 l -0.730247,-0.75142 h -5.185817 l -0.730248,0.75142 v 5.92665 l 0.730248,0.73024 z"
       id="path10286"
       style="font-size:10.5833px;line-height:1.25;font-family:Furore;-inkscape-font-specification:'Furore, Normal';text-align:end;letter-spacing:0px;word-spacing:0px;text-anchor:end;fill:#f9f9f9;stroke-width:0.264583"
       inkscape:export-filename="C:\Users\justi\Desktop\sum chirsso stickers.png"
       inkscape:export-xdpi="305.21799"
       inkscape:export-ydpi="305.21799" />
    <path
       d="m 78.983782,140.7413 v -2.23307 h 3.693572 v 2.23307 z m 5.16465,3.69357 v -1.48166 l -0.730247,-0.73025 0.730247,-0.74083 v -3.70415 l -0.730247,-0.75142 H 77.50212 v 7.40831 h 1.481662 v -2.21191 h 2.21191 l 0.740831,0.73025 0.740831,0.75142 v 0.73024 z"
       id="path10288"
       style="font-size:10.5833px;line-height:1.25;font-family:Furore;-inkscape-font-specification:'Furore, Normal';text-align:end;letter-spacing:0px;word-spacing:0px;text-anchor:end;fill:#f9f9f9;stroke-width:0.264583"
       inkscape:export-filename="C:\Users\justi\Desktop\sum chirsso stickers.png"
       inkscape:export-xdpi="305.21799"
       inkscape:export-ydpi="305.21799" />
    <path
       d="m 86.68841,144.43487 v -7.40831 h -1.481662 v 7.40831 z"
       id="path10290"
       style="font-size:10.5833px;line-height:1.25;font-family:Furore;-inkscape-font-specification:'Furore, Normal';text-align:end;letter-spacing:0px;word-spacing:0px;text-anchor:end;fill:#f9f9f9;stroke-width:0.264583"
       inkscape:export-filename="C:\Users\justi\Desktop\sum chirsso stickers.png"
       inkscape:export-xdpi="305.21799"
       inkscape:export-ydpi="305.21799" />
    <path
       d="m 94.39305,144.43487 v -7.40831 h -1.471079 v 4.93182 l -3.693572,-4.93182 h -1.481662 v 7.40831 h 1.481662 v -4.9424 l 3.693572,4.9424 z"
       id="path10292"
       style="font-size:10.5833px;line-height:1.25;font-family:Furore;-inkscape-font-specification:'Furore, Normal';text-align:end;letter-spacing:0px;word-spacing:0px;text-anchor:end;fill:#f9f9f9;stroke-width:0.264583"
       inkscape:export-filename="C:\Users\justi\Desktop\sum chirsso stickers.png"
       inkscape:export-xdpi="305.21799"
       inkscape:export-ydpi="305.21799" />
    <path
       d="m 102.09768,139.24906 -2.211912,-2.2225 h -4.434403 v 7.40831 h 5.916065 l 0.73025,-0.73024 z m -1.47108,3.70415 h -3.693573 v -4.44498 h 2.21191 l 1.481663,1.48166 z"
       id="path10294"
       style="font-size:10.5833px;line-height:1.25;font-family:Furore;-inkscape-font-specification:'Furore, Normal';text-align:end;letter-spacing:0px;word-spacing:0px;text-anchor:end;fill:#f9f9f9;stroke-width:0.264583"
       inkscape:export-filename="C:\Users\justi\Desktop\sum chirsso stickers.png"
       inkscape:export-xdpi="305.21799"
       inkscape:export-ydpi="305.21799" />
    <path
       d="m 109.33664,144.43487 v -1.48166 h -4.80482 v -1.47108 h 4.4344 v -1.48166 h -4.4344 v -1.49224 h 4.80482 v -1.48167 h -6.28648 v 7.40831 z"
       id="path10296"
       style="font-size:10.5833px;line-height:1.25;font-family:Furore;-inkscape-font-specification:'Furore, Normal';text-align:end;letter-spacing:0px;word-spacing:0px;text-anchor:end;fill:#f9f9f9;stroke-width:0.264583"
       inkscape:export-filename="C:\Users\justi\Desktop\sum chirsso stickers.png"
       inkscape:export-xdpi="305.21799"
       inkscape:export-ydpi="305.21799" />
    <path
       d="m 111.77078,140.7413 v -2.23307 h 3.69357 v 2.23307 z m 5.16465,3.69357 v -1.48166 l -0.73025,-0.73025 0.73025,-0.74083 v -3.70415 l -0.73025,-0.75142 h -5.91607 v 7.40831 h 1.48167 v -2.21191 h 2.21191 l 0.74083,0.73025 0.74083,0.75142 v 0.73024 z"
       id="path10298"
       style="font-size:10.5833px;line-height:1.25;font-family:Furore;-inkscape-font-specification:'Furore, Normal';text-align:end;letter-spacing:0px;word-spacing:0px;text-anchor:end;fill:#f9f9f9;stroke-width:0.264583"
       inkscape:export-filename="C:\Users\justi\Desktop\sum chirsso stickers.png"
       inkscape:export-xdpi="305.21799"
       inkscape:export-ydpi="305.21799" />
    <path
       d="m 122.85148,138.50823 v 0.75141 l -5.17524,3.69357 v 1.48166 h 6.64632 v -1.48166 h -4.12749 l 4.12749,-2.95274 v -2.22249 l -0.73025,-0.75142 h -5.18582 l -0.73025,0.75142 v 1.47108 h 1.48167 v -0.74083 z"
       id="path10300"
       style="font-size:10.5833px;line-height:1.25;font-family:Furore;-inkscape-font-specification:'Furore, Normal';text-align:end;letter-spacing:0px;word-spacing:0px;text-anchor:end;fill:#f9f9f9;stroke-width:0.264583"
       inkscape:export-filename="C:\Users\justi\Desktop\sum chirsso stickers.png"
       inkscape:export-xdpi="305.21799"
       inkscape:export-ydpi="305.21799" />
    <path
       d="m 125.06339,144.43487 h 1.48166 v -1.48166 h -1.48166 z"
       id="path10302"
       style="font-size:10.5833px;line-height:1.25;font-family:Furore;-inkscape-font-specification:'Furore, Normal';text-align:end;letter-spacing:0px;word-spacing:0px;text-anchor:end;fill:#f9f9f9;stroke-width:0.264583"
       inkscape:export-filename="C:\Users\justi\Desktop\sum chirsso stickers.png"
       inkscape:export-xdpi="305.21799"
       inkscape:export-ydpi="305.21799" />
    <path
       d="m 128.9792,141.99013 v -3.4819 h 2.74107 z m 3.69357,0.96308 h -2.68816 l 2.68816,-3.45015 z m 0.74083,1.48166 0.73025,-0.73024 v -5.92665 l -0.73025,-0.75142 h -5.18582 l -0.73025,0.75142 v 5.92665 l 0.73025,0.73024 z"
       id="path10304"
       style="font-size:10.5833px;line-height:1.25;font-family:Furore;-inkscape-font-specification:'Furore, Normal';text-align:end;letter-spacing:0px;word-spacing:0px;text-anchor:end;fill:#f9f9f9;stroke-width:0.264583"
       inkscape:export-filename="C:\Users\justi\Desktop\sum chirsso stickers.png"
       inkscape:export-xdpi="305.21799"
       inkscape:export-ydpi="305.21799" />
    <path
       d="m 136.68382,144.43487 v -4.99531 l 1.97908,2.8469 h 1.23825 l 1.93674,-2.8469 v 4.99531 h 1.48166 v -7.40831 h -1.42874 l -2.62466,3.58774 -2.58233,-3.58774 h -1.48166 v 7.40831 z"
       id="path10306"
       style="font-size:10.5833px;line-height:1.25;font-family:Furore;-inkscape-font-specification:'Furore, Normal';text-align:end;letter-spacing:0px;word-spacing:0px;text-anchor:end;fill:#f9f9f9;stroke-width:0.264583"
       inkscape:export-filename="C:\Users\justi\Desktop\sum chirsso stickers.png"
       inkscape:export-xdpi="305.21799"
       inkscape:export-ydpi="305.21799" />
    <path
       d="m 145.85954,142.95321 v -4.44498 h 3.69357 v 4.44498 z m 4.4344,1.48166 0.73025,-0.73024 v -5.92665 l -0.73025,-0.75142 h -5.18582 l -0.73024,0.75142 v 5.92665 l 0.73024,0.73024 z"
       id="path10308"
       style="font-size:10.5833px;line-height:1.25;font-family:Furore;-inkscape-font-specification:'Furore, Normal';text-align:end;letter-spacing:0px;word-spacing:0px;text-anchor:end;fill:#f9f9f9;stroke-width:0.264583"
       inkscape:export-filename="C:\Users\justi\Desktop\sum chirsso stickers.png"
       inkscape:export-xdpi="305.21799"
       inkscape:export-ydpi="305.21799" />
    <path
       d="m 153.56417,142.95321 v -1.47108 h 3.69357 v 1.47108 z m 0,-2.95274 v -1.49224 h 3.69357 v 1.49224 z m 4.4344,4.4344 0.73025,-0.73024 v -2.2225 l -0.73025,-0.74083 0.73025,-0.74083 v -2.22249 l -0.73025,-0.75142 h -5.91607 v 7.40831 z"
       id="path10310"
       style="font-size:10.5833px;line-height:1.25;font-family:Furore;-inkscape-font-specification:'Furore, Normal';text-align:end;letter-spacing:0px;word-spacing:0px;text-anchor:end;fill:#f9f9f9;stroke-width:0.264583"
       inkscape:export-filename="C:\Users\justi\Desktop\sum chirsso stickers.png"
       inkscape:export-xdpi="305.21799"
       inkscape:export-ydpi="305.21799" />
    <path
       d="m 161.26879,144.43487 v -7.40831 h -1.48166 v 7.40831 z"
       id="path10312"
       style="font-size:10.5833px;line-height:1.25;font-family:Furore;-inkscape-font-specification:'Furore, Normal';text-align:end;letter-spacing:0px;word-spacing:0px;text-anchor:end;fill:#f9f9f9;stroke-width:0.264583"
       inkscape:export-filename="C:\Users\justi\Desktop\sum chirsso stickers.png"
       inkscape:export-xdpi="305.21799"
       inkscape:export-ydpi="305.21799" />
    <path
       d="m 162.32712,137.02656 v 7.40831 h 6.28648 v -1.48166 h -4.80482 v -5.92665 z"
       id="path10314"
       style="font-size:10.5833px;line-height:1.25;font-family:Furore;-inkscape-font-specification:'Furore, Normal';text-align:end;letter-spacing:0px;word-spacing:0px;text-anchor:end;fill:#f9f9f9;stroke-width:0.264583"
       inkscape:export-filename="C:\Users\justi\Desktop\sum chirsso stickers.png"
       inkscape:export-xdpi="305.21799"
       inkscape:export-ydpi="305.21799" />
    <path
       d="m 175.6409,144.43487 v -1.48166 h -4.80482 v -1.47108 h 4.43441 v -1.48166 h -4.43441 v -1.49224 h 4.80482 v -1.48167 h -6.28648 v 7.40831 z"
       id="path10316"
       style="font-size:10.5833px;line-height:1.25;font-family:Furore;-inkscape-font-specification:'Furore, Normal';text-align:end;letter-spacing:0px;word-spacing:0px;text-anchor:end;fill:#f9f9f9;stroke-width:0.264583"
       inkscape:export-filename="C:\Users\justi\Desktop\sum chirsso stickers.png"
       inkscape:export-xdpi="305.21799"
       inkscape:export-ydpi="305.21799" />
    <path
       d="m 103.10304,153.2296 h -2.21191 v 1.48166 h 2.21191 v 2.22249 h 1.48166 v -2.22249 h 2.22249 v -1.48166 h -2.22249 v -2.2225 h -1.48166 z"
       id="path10318"
       style="font-size:10.5833px;line-height:1.25;font-family:Furore;-inkscape-font-specification:'Furore, Normal';text-align:end;letter-spacing:0px;word-spacing:0px;text-anchor:end;fill:#f9f9f9;stroke-width:0.264583"
       inkscape:export-filename="C:\Users\justi\Desktop\sum chirsso stickers.png"
       inkscape:export-xdpi="305.21799"
       inkscape:export-ydpi="305.21799" />
    <path
       d="m 113.26299,153.97043 v -2.23308 h 3.69357 v 2.23308 z m 0,3.69357 v -2.21191 h 4.4344 l 0.73025,-0.74083 v -3.70416 l -0.73025,-0.75141 h -5.91606 v 7.40831 z"
       id="path10320"
       style="font-size:10.5833px;line-height:1.25;font-family:Furore;-inkscape-font-specification:'Furore, Normal';text-align:end;letter-spacing:0px;word-spacing:0px;text-anchor:end;fill:#ff0000;stroke-width:0.264583;fill-opacity:1"
       inkscape:export-filename="C:\Users\justi\Desktop\sum chirsso stickers.png"
       inkscape:export-xdpi="305.21799"
       inkscape:export-ydpi="305.21799" />
    <path
       d="m 120.86178,153.97043 v -2.23308 h 3.69358 v 2.23308 z m 5.16465,3.69357 v -1.48166 l -0.73024,-0.73025 0.73024,-0.74083 v -3.70416 l -0.73024,-0.75141 h -5.91607 v 7.40831 h 1.48166 v -2.21191 h 2.21191 l 0.74083,0.73025 0.74084,0.75141 v 0.73025 z"
       id="path10322"
       style="font-size:10.5833px;line-height:1.25;font-family:Furore;-inkscape-font-specification:'Furore, Normal';text-align:end;letter-spacing:0px;word-spacing:0px;text-anchor:end;fill:#ff0000;stroke-width:0.264583;fill-opacity:1"
       inkscape:export-filename="C:\Users\justi\Desktop\sum chirsso stickers.png"
       inkscape:export-xdpi="305.21799"
       inkscape:export-ydpi="305.21799" />
    <path
       d="m 128.56641,156.18234 v -4.44499 h 3.69358 v 4.44499 z m 4.43441,1.48166 0.73024,-0.73025 v -5.92665 l -0.73024,-0.75141 H 127.815 l -0.73025,0.75141 v 5.92665 l 0.73025,0.73025 z"
       id="path10324"
       style="font-size:10.5833px;line-height:1.25;font-family:Furore;-inkscape-font-specification:'Furore, Normal';text-align:end;letter-spacing:0px;word-spacing:0px;text-anchor:end;fill:#ff0000;stroke-width:0.264583;fill-opacity:1"
       inkscape:export-filename="C:\Users\justi\Desktop\sum chirsso stickers.png"
       inkscape:export-xdpi="305.21799"
       inkscape:export-ydpi="305.21799" />
    <path
       d="m 140.70544,157.664 0.73025,-0.73025 v -2.97391 l -0.73025,-0.74083 h -4.4344 v -1.48166 h 3.69357 v 0.74083 h 1.47108 v -1.47108 l -0.73025,-0.75141 h -5.18581 l -0.73025,0.75141 v 3.17499 l 0.73025,0.52917 h 4.44498 v 1.47108 h -3.69357 v -0.73025 h -1.48166 v 1.48166 l 0.73025,0.73025 z"
       id="path10326"
       style="font-size:10.5833px;line-height:1.25;font-family:Furore;-inkscape-font-specification:'Furore, Normal';text-align:end;letter-spacing:0px;word-spacing:0px;text-anchor:end;fill:#ff0000;stroke-width:0.264583;fill-opacity:1"
       inkscape:export-filename="C:\Users\justi\Desktop\sum chirsso stickers.png"
       inkscape:export-xdpi="305.21799"
       inkscape:export-ydpi="305.21799" />
    <path
       d="m 143.97567,157.664 v -2.95274 h 3.69357 v 2.95274 h 1.47108 v -7.40831 h -1.47108 v 2.97391 h -3.69357 v -2.97391 h -1.48166 v 7.40831 z"
       id="path10328"
       style="font-size:10.5833px;line-height:1.25;font-family:Furore;-inkscape-font-specification:'Furore, Normal';text-align:end;letter-spacing:0px;word-spacing:0px;text-anchor:end;fill:#ff0000;stroke-width:0.264583;fill-opacity:1"
       inkscape:export-filename="C:\Users\justi\Desktop\sum chirsso stickers.png"
       inkscape:export-xdpi="305.21799"
       inkscape:export-ydpi="305.21799" />
    <path
       d="m 155.7972,154.71126 0.73025,-0.74083 v -2.96333 l -0.73025,-0.75141 h -5.18581 l -0.73025,0.75141 v 1.47108 h 1.48166 v -0.74083 h 3.69357 v 1.49225 h -2.23307 l -0.74083,0.74083 v 1.48166 h 1.48166 v -0.74083 z m -3.70415,2.95274 h 1.48166 v -1.48166 h -1.48166 z"
       id="path10330"
       style="font-size:10.5833px;line-height:1.25;font-family:Furore;-inkscape-font-specification:'Furore, Normal';text-align:end;letter-spacing:0px;word-spacing:0px;text-anchor:end;fill:#ff0000;stroke-width:0.264583;fill-opacity:1"
       inkscape:export-filename="C:\Users\justi\Desktop\sum chirsso stickers.png"
       inkscape:export-xdpi="305.21799"
       inkscape:export-ydpi="305.21799" />
    <path
       d="m 163.18435,154.71126 0.73024,-0.74083 v -2.96333 l -0.73024,-0.75141 h -5.18582 l -0.73025,0.75141 v 1.47108 h 1.48166 v -0.74083 h 3.69358 v 1.49225 h -2.23308 l -0.74083,0.74083 v 1.48166 h 1.48166 v -0.74083 z m -3.70416,2.95274 h 1.48166 v -1.48166 h -1.48166 z"
       id="path10332"
       style="font-size:10.5833px;line-height:1.25;font-family:Furore;-inkscape-font-specification:'Furore, Normal';text-align:end;letter-spacing:0px;word-spacing:0px;text-anchor:end;fill:#ff0000;stroke-width:0.264583;fill-opacity:1"
       inkscape:export-filename="C:\Users\justi\Desktop\sum chirsso stickers.png"
       inkscape:export-xdpi="305.21799"
       inkscape:export-ydpi="305.21799" />
    <path
       d="m 170.57149,154.71126 0.73025,-0.74083 v -2.96333 l -0.73025,-0.75141 h -5.18582 l -0.73025,0.75141 v 1.47108 h 1.48167 v -0.74083 h 3.69357 v 1.49225 h -2.23308 l -0.74083,0.74083 v 1.48166 h 1.48166 v -0.74083 z m -3.70416,2.95274 h 1.48167 v -1.48166 h -1.48167 z"
       id="path10334"
       style="font-size:10.5833px;line-height:1.25;font-family:Furore;-inkscape-font-specification:'Furore, Normal';text-align:end;letter-spacing:0px;word-spacing:0px;text-anchor:end;fill:#ff0000;stroke-width:0.264583;fill-opacity:1"
       inkscape:export-filename="C:\Users\justi\Desktop\sum chirsso stickers.png"
       inkscape:export-xdpi="305.21799"
       inkscape:export-ydpi="305.21799" />
    <text
       xml:space="preserve"
       style="font-style:normal;font-variant:normal;font-weight:bold;font-stretch:normal;font-size:4.86131px;line-height:1.25;font-family:Helvetica;-inkscape-font-specification:'Helvetica, Bold';font-variant-ligatures:normal;font-variant-caps:normal;font-variant-numeric:normal;font-feature-settings:normal;text-align:start;letter-spacing:0px;word-spacing:0px;writing-mode:lr-tb;text-anchor:start;fill:#ffffff;fill-opacity:1;stroke:none;stroke-width:0.264583"
       x="-88.355476"
       y="229.37894"
       id="text13699"
       transform="rotate(-72.107704)"
       inkscape:export-filename="C:\Users\justi\Desktop\sum chirsso stickers.png"
       inkscape:export-xdpi="305.21799"
       inkscape:export-ydpi="305.21799"><tspan
         sodipodi:role="line"
         id="tspan13697"
         style="fill:#ffffff;stroke-width:0.264583"
         x="-88.355476"
         y="229.37894">get places. go. </tspan><tspan
         sodipodi:role="line"
         style="fill:#ffffff;stroke-width:0.264583"
         x="-88.355476"
         y="235.45557"
         id="tspan14309">_/\_ ()</tspan></text>
    <text
       xml:space="preserve"
       style="font-style:normal;font-variant:normal;font-weight:bold;font-stretch:normal;font-size:10.883px;line-height:1.25;font-family:Helvetica;-inkscape-font-specification:'Helvetica, Bold';font-variant-ligatures:normal;font-variant-caps:normal;font-variant-numeric:normal;font-feature-settings:normal;text-align:start;letter-spacing:0px;word-spacing:0px;writing-mode:lr-tb;text-anchor:start;fill:#ffffff;fill-opacity:1;stroke:none;stroke-width:0.264583"
       x="78.843071"
       y="191.7841"
       id="text15833"
       inkscape:export-filename="C:\Users\justi\Desktop\sum chirsso stickers.png"
       inkscape:export-xdpi="305.21799"
       inkscape:export-ydpi="305.21799"><tspan
         sodipodi:role="line"
         id="tspan15831"
         style="stroke-width:0.264583;fill:#ffffff"
         x="78.843071"
         y="191.7841">mew</tspan><tspan
         sodipodi:role="line"
         style="stroke-width:0.264583;fill:#ffffff"
         x="78.843071"
         y="205.38786"
         id="tspan15835">humble</tspan><tspan
         sodipodi:role="line"
         style="stroke-width:0.264583;fill:#ffffff"
         x="78.843071"
         y="218.99164"
         id="tspan15839">kind+grind?</tspan></text>
    <rect
       style="opacity:1;fill:none;fill-opacity:1;stroke:#d40000;stroke-width:1.1;stroke-linejoin:miter;stroke-miterlimit:4;stroke-dasharray:none;stroke-opacity:1;paint-order:stroke fill markers"
       id="rect16253"
       width="6.8481755"
       height="6.8481755"
       x="65.428131"
       y="185.22684"
       inkscape:export-filename="C:\Users\justi\Desktop\sum chirsso stickers.png"
       inkscape:export-xdpi="305.21799"
       inkscape:export-ydpi="305.21799" />
    <rect
       style="opacity:1;fill:none;fill-opacity:1;stroke:#d40000;stroke-width:1.1;stroke-linejoin:miter;stroke-miterlimit:4;stroke-dasharray:none;stroke-opacity:1;paint-order:stroke fill markers"
       id="rect16479"
       width="6.8481755"
       height="6.8481755"
       x="65.428131"
       y="198.67862"
       inkscape:export-filename="C:\Users\justi\Desktop\sum chirsso stickers.png"
       inkscape:export-xdpi="305.21799"
       inkscape:export-ydpi="305.21799" />
    <rect
       style="opacity:1;fill:none;fill-opacity:1;stroke:#d40000;stroke-width:1.1;stroke-linejoin:miter;stroke-miterlimit:4;stroke-dasharray:none;stroke-opacity:1;paint-order:stroke fill markers"
       id="rect16481"
       width="6.8481755"
       height="6.8481755"
       x="65.428131"
       y="212.13039"
       inkscape:export-filename="C:\Users\justi\Desktop\sum chirsso stickers.png"
       inkscape:export-xdpi="305.21799"
       inkscape:export-ydpi="305.21799" />
  </g>
</svg>
