<?xml version="1.0" encoding="UTF-8" standalone="no"?>
<!-- Created with Inkscape (http://www.inkscape.org/) -->

<svg
   xmlns:dc="http://purl.org/dc/elements/1.1/"
   xmlns:cc="http://creativecommons.org/ns#"
   xmlns:rdf="http://www.w3.org/1999/02/22-rdf-syntax-ns#"
   xmlns:svg="http://www.w3.org/2000/svg"
   xmlns="http://www.w3.org/2000/svg"
   xmlns:sodipodi="http://sodipodi.sourceforge.net/DTD/sodipodi-0.dtd"
   xmlns:inkscape="http://www.inkscape.org/namespaces/inkscape"
   width="210mm"
   height="297mm"
   viewBox="0 0 210 297"
   version="1.1"
   id="svg8"
   inkscape:version="0.92.1 r15371"
   sodipodi:docname="tokyo logo conetrep.svg">
  <defs
     id="defs2">
    <inkscape:path-effect
       effect="skeletal"
       id="path-effect4393"
       is_visible="true"
       pattern="M 0,5 C 0,2.24 2.24,0 5,0 7.76,0 10,2.24 10,5 10,7.76 7.76,10 5,10 2.24,10 0,7.76 0,5 Z"
       copytype="single_stretched"
       prop_scale="0.26458333"
       scale_y_rel="false"
       spacing="0"
       normal_offset="0"
       tang_offset="0"
       prop_units="false"
       vertical_pattern="false"
       fuse_tolerance="0" />
    <inkscape:path-effect
       effect="skeletal"
       id="path-effect4389"
       is_visible="true"
       pattern="M 0,5 C 0,2.24 2.24,0 5,0 7.76,0 10,2.24 10,5 10,7.76 7.76,10 5,10 2.24,10 0,7.76 0,5 Z"
       copytype="single_stretched"
       prop_scale="0.26458333"
       scale_y_rel="false"
       spacing="0"
       normal_offset="0"
       tang_offset="0"
       prop_units="false"
       vertical_pattern="false"
       fuse_tolerance="0" />
    <inkscape:path-effect
       effect="skeletal"
       id="path-effect4385"
       is_visible="true"
       pattern="M 0,5 C 0,2.24 2.24,0 5,0 7.76,0 10,2.24 10,5 10,7.76 7.76,10 5,10 2.24,10 0,7.76 0,5 Z"
       copytype="single_stretched"
       prop_scale="0.26458333"
       scale_y_rel="false"
       spacing="0"
       normal_offset="0"
       tang_offset="0"
       prop_units="false"
       vertical_pattern="false"
       fuse_tolerance="0" />
    <inkscape:path-effect
       effect="skeletal"
       id="path-effect4381"
       is_visible="true"
       pattern="M 0,5 C 0,2.24 2.24,0 5,0 7.76,0 10,2.24 10,5 10,7.76 7.76,10 5,10 2.24,10 0,7.76 0,5 Z"
       copytype="single_stretched"
       prop_scale="0.26458333"
       scale_y_rel="false"
       spacing="0"
       normal_offset="0"
       tang_offset="0"
       prop_units="false"
       vertical_pattern="false"
       fuse_tolerance="0" />
    <inkscape:path-effect
       effect="skeletal"
       id="path-effect4373"
       is_visible="true"
       pattern="M 0,5 C 0,2.24 2.24,0 5,0 7.76,0 10,2.24 10,5 10,7.76 7.76,10 5,10 2.24,10 0,7.76 0,5 Z"
       copytype="single_stretched"
       prop_scale="0.26458333"
       scale_y_rel="false"
       spacing="0"
       normal_offset="0"
       tang_offset="0"
       prop_units="false"
       vertical_pattern="false"
       fuse_tolerance="0" />
    <inkscape:path-effect
       effect="skeletal"
       id="path-effect4369"
       is_visible="true"
       pattern="M 0,5 C 0,2.24 2.24,0 5,0 7.76,0 10,2.24 10,5 10,7.76 7.76,10 5,10 2.24,10 0,7.76 0,5 Z"
       copytype="single_stretched"
       prop_scale="0.26458333"
       scale_y_rel="false"
       spacing="0"
       normal_offset="0"
       tang_offset="0"
       prop_units="false"
       vertical_pattern="false"
       fuse_tolerance="0" />
    <inkscape:path-effect
       effect="skeletal"
       id="path-effect4365"
       is_visible="true"
       pattern="M 0,5 C 0,2.24 2.24,0 5,0 7.76,0 10,2.24 10,5 10,7.76 7.76,10 5,10 2.24,10 0,7.76 0,5 Z"
       copytype="single_stretched"
       prop_scale="0.26458333"
       scale_y_rel="false"
       spacing="0"
       normal_offset="0"
       tang_offset="0"
       prop_units="false"
       vertical_pattern="false"
       fuse_tolerance="0" />
    <inkscape:path-effect
       effect="skeletal"
       id="path-effect4361"
       is_visible="true"
       pattern="M 0,5 C 0,2.24 2.24,0 5,0 7.76,0 10,2.24 10,5 10,7.76 7.76,10 5,10 2.24,10 0,7.76 0,5 Z"
       copytype="single_stretched"
       prop_scale="0.26458333"
       scale_y_rel="false"
       spacing="0"
       normal_offset="0"
       tang_offset="0"
       prop_units="false"
       vertical_pattern="false"
       fuse_tolerance="0" />
    <inkscape:path-effect
       effect="skeletal"
       id="path-effect4357"
       is_visible="true"
       pattern="M 0,5 C 0,2.24 2.24,0 5,0 7.76,0 10,2.24 10,5 10,7.76 7.76,10 5,10 2.24,10 0,7.76 0,5 Z"
       copytype="single_stretched"
       prop_scale="0.26458333"
       scale_y_rel="false"
       spacing="0"
       normal_offset="0"
       tang_offset="0"
       prop_units="false"
       vertical_pattern="false"
       fuse_tolerance="0" />
    <inkscape:path-effect
       effect="skeletal"
       id="path-effect4353"
       is_visible="true"
       pattern="M 0,5 C 0,2.24 2.24,0 5,0 7.76,0 10,2.24 10,5 10,7.76 7.76,10 5,10 2.24,10 0,7.76 0,5 Z"
       copytype="single_stretched"
       prop_scale="0.26458333"
       scale_y_rel="false"
       spacing="0"
       normal_offset="0"
       tang_offset="0"
       prop_units="false"
       vertical_pattern="false"
       fuse_tolerance="0" />
    <inkscape:path-effect
       effect="skeletal"
       id="path-effect4349"
       is_visible="true"
       pattern="M 0,5 C 0,2.24 2.24,0 5,0 7.76,0 10,2.24 10,5 10,7.76 7.76,10 5,10 2.24,10 0,7.76 0,5 Z"
       copytype="single_stretched"
       prop_scale="0.26458333"
       scale_y_rel="false"
       spacing="0"
       normal_offset="0"
       tang_offset="0"
       prop_units="false"
       vertical_pattern="false"
       fuse_tolerance="0" />
    <inkscape:path-effect
       effect="skeletal"
       id="path-effect4331"
       is_visible="true"
       pattern="M 0,5 C 0,2.24 2.24,0 5,0 7.76,0 10,2.24 10,5 10,7.76 7.76,10 5,10 2.24,10 0,7.76 0,5 Z"
       copytype="single_stretched"
       prop_scale="0.26458333"
       scale_y_rel="false"
       spacing="0"
       normal_offset="0"
       tang_offset="0"
       prop_units="false"
       vertical_pattern="false"
       fuse_tolerance="0" />
    <inkscape:path-effect
       effect="skeletal"
       id="path-effect4327"
       is_visible="true"
       pattern="M 0,5 C 0,2.24 2.24,0 5,0 7.76,0 10,2.24 10,5 10,7.76 7.76,10 5,10 2.24,10 0,7.76 0,5 Z"
       copytype="single_stretched"
       prop_scale="0.26458333"
       scale_y_rel="false"
       spacing="0"
       normal_offset="0"
       tang_offset="0"
       prop_units="false"
       vertical_pattern="false"
       fuse_tolerance="0" />
    <inkscape:path-effect
       effect="skeletal"
       id="path-effect4323"
       is_visible="true"
       pattern="M 0,5 C 0,2.24 2.24,0 5,0 7.76,0 10,2.24 10,5 10,7.76 7.76,10 5,10 2.24,10 0,7.76 0,5 Z"
       copytype="single_stretched"
       prop_scale="0.26458333"
       scale_y_rel="false"
       spacing="0"
       normal_offset="0"
       tang_offset="0"
       prop_units="false"
       vertical_pattern="false"
       fuse_tolerance="0" />
    <inkscape:path-effect
       effect="skeletal"
       id="path-effect4319"
       is_visible="true"
       pattern="M 0,5 C 0,2.24 2.24,0 5,0 7.76,0 10,2.24 10,5 10,7.76 7.76,10 5,10 2.24,10 0,7.76 0,5 Z"
       copytype="single_stretched"
       prop_scale="0.26458333"
       scale_y_rel="false"
       spacing="0"
       normal_offset="0"
       tang_offset="0"
       prop_units="false"
       vertical_pattern="false"
       fuse_tolerance="0" />
  </defs>
  <sodipodi:namedview
     id="base"
     pagecolor="#ffffff"
     bordercolor="#666666"
     borderopacity="1.0"
     inkscape:pageopacity="0.0"
     inkscape:pageshadow="2"
     inkscape:zoom="0.78499901"
     inkscape:cx="-628.8338"
     inkscape:cy="723.30123"
     inkscape:document-units="mm"
     inkscape:current-layer="layer1"
     showgrid="false"
     showborder="false"
     inkscape:window-width="1920"
     inkscape:window-height="1051"
     inkscape:window-x="-9"
     inkscape:window-y="289"
     inkscape:window-maximized="1" />
  <metadata
     id="metadata5">
    <rdf:RDF>
      <cc:Work
         rdf:about="">
        <dc:format>image/svg+xml</dc:format>
        <dc:type
           rdf:resource="http://purl.org/dc/dcmitype/StillImage" />
        <dc:title></dc:title>
      </cc:Work>
    </rdf:RDF>
  </metadata>
  <g
     inkscape:label="Layer 1"
     inkscape:groupmode="layer"
     id="layer1">
    <g
       id="g4337"
       transform="rotate(3.7052343,-105.09267,95.76597)">
      <path
         inkscape:original-d="m -120.8542,86.641153 c 0,0 21.654363,1.123576 30.745109,-2.042864"
         inkscape:path-effect="#path-effect4319"
         inkscape:connector-curvature="0"
         id="path4317"
         d="m -120.85416,86.641155 c 0.009,-0.627469 5.13183,-1.082608 11.97615,-1.123106 0,0 0,0 0,0 4.09955,-0.154772 -0.64767,0.02422 3.45188,-0.13055 2.45804,-0.09714 4.47681,-0.194675 6.563426,-0.32278 5.0786,-0.324776 8.639609,-0.793739 8.753615,-0.466431 0.21985,0.631182 -3.204726,2.091821 -8.509286,2.84208 -2.053035,0.294322 -4.296225,0.495074 -6.730675,0.591119 -1.21244,0.04783 -2.39368,0.06663 -3.52406,0.0642 0,0 0,0 0,0 -6.87481,-0.230425 -11.98973,-0.826934 -11.98105,-1.454536 z"
         style="opacity:1;vector-effect:none;fill:#000000;fill-opacity:1;stroke:none;stroke-width:0.99999994;stroke-linecap:butt;stroke-linejoin:miter;stroke-miterlimit:4;stroke-dasharray:none;stroke-dashoffset:0;stroke-opacity:1" />
      <path
         inkscape:original-d="m -122.01182,92.667602 c 0,0 26.386996,1.191673 32.447494,-2.07691"
         inkscape:path-effect="#path-effect4323"
         inkscape:connector-curvature="0"
         id="path4321"
         d="m -122.01179,92.667603 c 0.009,-0.664696 6.0823,-1.134113 13.96383,-1.121713 0,0 0,0 0,0 0.46331,-0.01265 1.89721,-0.04969 2.36052,-0.06234 3.3294,-0.08792 5.702642,-0.167419 8.385047,-0.313967 0,0 10e-7,-10e-7 10e-7,-10e-7 1.884427,-0.103696 3.084592,-0.191213 4.438342,-0.331335 1.971936,-0.219318 3.196348,-0.439236 3.299726,-0.247556 0.161381,0.299228 -0.865926,1.133984 -2.963857,1.806751 -1.260384,0.411046 -2.72916,0.742103 -4.538866,1.019942 0,0 -10e-7,0 -10e-7,0 -2.545646,0.391296 -5.382962,0.627576 -8.580172,0.711576 -0.81513,0.02142 -1.617,0.03204 -2.39848,0.03446 0,0 0,0 0,0 -7.90977,-0.199197 -13.97499,-0.831039 -13.96609,-1.495818 z"
         style="opacity:1;vector-effect:none;fill:#000000;fill-opacity:1;stroke:none;stroke-width:0.99999994;stroke-linecap:butt;stroke-linejoin:miter;stroke-miterlimit:4;stroke-dasharray:none;stroke-dashoffset:0;stroke-opacity:1" />
      <path
         sodipodi:nodetypes="cc"
         inkscape:original-d="m -109.00558,86.913536 c 0,0 1.53269,19.884234 -9.13553,19.585464"
         inkscape:path-effect="#path-effect4327"
         inkscape:connector-curvature="0"
         id="path4325"
         d="m -109.00558,86.913578 c 0.64952,0.0373 0.93943,4.365928 0.71859,10.077837 0,0 0,10e-7 0,10e-7 -0.11668,0.71086 -0.27148,1.45225 -0.47959,2.203101 -0.54437,1.964083 -1.36845,3.680713 -2.49159,5.089173 0,0 0,0 0,0 -0.89577,1.1048 -1.95458,1.85912 -2.99293,2.29225 -2.49129,1.00945 -3.89501,0.10133 -3.89002,-0.0769 0.0103,-0.367 1.48634,-0.49575 3.01606,-1.58592 0.68788,-0.47485 1.34334,-1.14624 1.95036,-2.05799 0,0 0,0 0,0 0.79565,-1.16621 1.35869,-2.54567 1.83177,-4.247611 0.17927,-0.644954 0.33645,-1.302162 0.47962,-1.937521 0,0 0,-10e-7 0,-10e-7 0.42572,-5.555893 1.2088,-9.793649 1.85773,-9.756379 z"
         style="opacity:1;vector-effect:none;fill:#000000;fill-opacity:1;stroke:none;stroke-width:0.99999994;stroke-linecap:butt;stroke-linejoin:miter;stroke-miterlimit:4;stroke-dasharray:none;stroke-dashoffset:0;stroke-opacity:1" />
      <path
         sodipodi:nodetypes="cc"
         inkscape:original-d="m -101.85556,86.436867 c 0,0 2.66892,19.156953 13.681526,18.155093"
         inkscape:path-effect="#path-effect4331"
         inkscape:connector-curvature="0"
         id="path4329"
         d="m -101.85555,86.43691 c 0.0222,-0.0033 0.0447,-0.0014 0.0681,0.0055 0,0 0,0 0,0 0.022,0.0065 0.0446,0.01756 0.0678,0.03293 0.046,0.03055 0.0943,0.07842 0.14487,0.142576 l 0,0 0,0 c 0.0998,0.126328 0.20941,0.31729 0.32847,0.564148 l 0,0 c 0.23147,0.479885 0.5061,1.185864 0.82695,2.045817 l 0,0 c 0.585042,1.565948 1.392728,3.860148 2.46561,6.154189 0.341173,0.71861 0.712086,1.461879 1.115774,2.185601 0.835757,1.498323 1.704537,2.719039 2.704093,3.723209 0,0 10e-7,0 10e-7,0 1.358403,1.386 2.879664,2.10466 4.022745,2.5056 1.138746,0.39942 1.910858,0.50669 1.93713,0.79548 0.02163,0.23777 -0.723291,0.6619 -2.17366,0.63767 -1.422626,-0.0238 -3.50728,-0.53147 -5.424531,-2.15617 0,0 0,0 -1e-6,0 -1.303254,-1.11264 -2.434572,-2.52616 -3.381359,-4.207748 -0.460663,-0.818185 -0.846283,-1.643832 -1.171122,-2.443426 -1.06936,-2.59156 -1.58175,-5.030862 -1.7823,-6.793533 l 0,0 c -0.1089,-0.952433 -0.12824,-1.726512 -0.082,-2.275744 l 0,0 c 0.0237,-0.280942 0.0642,-0.501488 0.11972,-0.65646 l 0,0 0,0 c 0.028,-0.07794 0.0596,-0.138959 0.0947,-0.182422 0.0176,-0.02182 0.0361,-0.03916 0.0553,-0.05196 0,0 1e-5,0 1e-5,0 0.0205,-0.01356 0.0415,-0.02194 0.0637,-0.02526 z"
         style="opacity:1;vector-effect:none;fill:#000000;fill-opacity:1;stroke:none;stroke-width:0.99999994;stroke-linecap:butt;stroke-linejoin:miter;stroke-miterlimit:4;stroke-dasharray:none;stroke-dashoffset:0;stroke-opacity:1" />
    </g>
  </g>
</svg>
