<?xml version="1.0" standalone="no"?>
<!DOCTYPE svg PUBLIC "-//W3C//DTD SVG 20010904//EN"
 "http://www.w3.org/TR/2001/REC-SVG-20010904/DTD/svg10.dtd">
<svg version="1.0" xmlns="http://www.w3.org/2000/svg"
 width="1739.000000pt" height="1146.000000pt" viewBox="0 0 1739.000000 1146.000000"
 preserveAspectRatio="xMidYMid meet">
<metadata>
Created by potrace 1.14, written by Peter Selinger 2001-2017
</metadata>
<g transform="translate(0.000000,1146.000000) scale(0.100000,-0.100000)"
fill="#000000" stroke="none">
<path d="M4755 11449 c-154 -15 -304 -39 -470 -74 -226 -49 -304 -74 -328
-107 -19 -25 -19 -28 -3 -52 21 -33 40 -33 161 -1 112 29 312 68 324 63 5 -2
-56 -109 -135 -238 -226 -369 -465 -864 -481 -999 -4 -40 -2 -50 20 -73 28
-30 58 -36 74 -15 6 6 28 66 51 132 101 300 305 704 522 1039 79 121 91 151
69 173 -18 18 76 29 365 43 214 10 246 18 246 64 0 44 -22 51 -179 53 -80 0
-186 -3 -236 -8z"/>
<path d="M5188 11323 c-73 -86 -347 -608 -481 -918 -118 -274 -137 -344 -98
-365 33 -17 49 -1 99 104 87 181 162 284 264 361 33 25 63 44 65 42 2 -3 -24
-51 -57 -108 -72 -124 -94 -185 -94 -261 -1 -46 3 -62 20 -79 73 -73 234 42
353 252 33 60 39 94 17 102 -20 8 -35 -7 -98 -93 -89 -122 -165 -179 -182
-135 -12 33 47 156 144 300 38 55 71 110 75 122 7 26 -25 63 -55 63 -44 0
-170 -80 -258 -164 -37 -35 -42 -37 -34 -16 43 110 181 368 321 599 80 132 94
174 69 199 -17 17 -53 15 -70 -5z"/>
<path d="M9223 11303 c-39 -38 -148 -220 -258 -433 l-90 -175 -35 12 c-65 22
-152 -5 -226 -69 -123 -108 -220 -333 -200 -461 14 -85 75 -142 139 -130 37 7
117 80 158 145 l34 53 6 -55 c7 -65 28 -110 65 -139 33 -26 56 -27 77 -3 24
26 21 52 -9 83 -51 54 -50 150 4 313 34 105 166 371 282 571 51 88 107 186
123 218 29 55 29 58 12 77 -25 27 -47 25 -82 -7z m-401 -695 c15 -12 10 -27
-49 -143 -63 -126 -131 -234 -169 -266 -33 -28 -53 -30 -75 -8 -19 19 -21 29
-15 75 23 199 216 413 308 342z"/>
<path d="M10685 11078 c-20 -24 -67 -88 -103 -143 -37 -55 -71 -103 -76 -107
-5 -3 -39 -12 -75 -19 -84 -15 -101 -24 -101 -53 0 -32 22 -48 65 -48 19 0 35
-2 35 -4 0 -2 -24 -53 -54 -112 -73 -147 -106 -249 -113 -352 -7 -99 7 -139
57 -165 90 -46 200 28 329 221 57 84 64 126 24 132 -17 3 -32 -12 -74 -75
-100 -148 -174 -206 -216 -172 -12 11 -14 26 -10 74 7 87 41 180 126 349 l76
150 110 32 c61 18 124 33 141 33 44 1 79 31 69 60 -13 41 -53 45 -195 15 l-34
-7 46 64 c67 94 81 125 68 149 -18 33 -54 25 -95 -22z"/>
<path d="M5705 11069 c-43 -38 -65 -78 -65 -118 0 -92 134 -35 170 73 25 76
-38 103 -105 45z"/>
<path d="M7001 10813 c-58 -48 -375 -649 -530 -1006 -91 -210 -123 -301 -119
-340 4 -37 30 -57 56 -41 9 6 51 94 93 196 85 208 198 456 210 464 5 3 23 -3
40 -12 116 -59 306 80 425 311 118 230 58 365 -124 280 l-53 -24 36 63 c37 66
43 94 23 114 -17 17 -32 15 -57 -5z m121 -240 c5 -23 -18 -106 -44 -158 -34
-67 -118 -174 -165 -210 -53 -41 -94 -51 -134 -35 l-29 13 56 106 c31 58 67
121 80 140 32 48 104 121 139 143 39 24 92 24 97 1z"/>
<path d="M6008 10769 c-124 -18 -264 -120 -288 -210 -21 -75 -6 -128 70 -248
49 -79 53 -128 15 -166 -14 -15 -36 -25 -52 -25 -35 0 -88 31 -104 62 -17 32
-14 119 6 158 33 63 -6 81 -60 27 -122 -122 -31 -347 140 -347 86 0 174 62
194 138 15 56 4 96 -56 197 -43 72 -48 86 -48 142 0 57 3 65 35 98 84 87 230
116 230 46 0 -39 -39 -71 -117 -96 -73 -24 -95 -44 -77 -72 40 -64 238 28 285
131 56 123 -12 188 -173 165z"/>
<path d="M13114 10769 c-101 -13 -225 -89 -269 -163 -19 -33 -25 -57 -25 -102
1 -63 16 -102 80 -203 45 -70 47 -122 7 -157 -33 -28 -68 -31 -107 -8 -59 36
-75 107 -43 197 13 37 14 50 5 59 -20 20 -63 -10 -89 -62 -43 -83 -26 -208 35
-263 26 -24 88 -46 127 -47 109 -1 205 85 205 183 0 32 -16 68 -94 212 -52 95
-18 177 95 234 73 37 133 41 149 12 22 -42 -30 -98 -105 -115 -71 -16 -86 -27
-83 -60 3 -30 4 -31 54 -30 103 3 219 89 244 183 27 100 -44 149 -186 130z"/>
<path d="M8261 10728 c-149 -74 -316 -324 -336 -505 -21 -179 109 -232 251
-101 115 106 238 337 259 486 8 59 -7 117 -35 132 -31 17 -92 11 -139 -12z
m69 -103 c26 -31 -3 -94 -94 -209 -26 -34 -27 -38 -13 -54 15 -16 14 -22 -12
-68 -36 -61 -103 -124 -134 -124 -34 0 -47 19 -47 68 0 96 108 280 212 363 54
43 69 47 88 24z"/>
<path d="M12432 10724 c-58 -29 -144 -109 -192 -179 -41 -59 -104 -196 -119
-257 -25 -107 -5 -195 52 -224 64 -33 134 2 203 101 l39 58 6 -61 c7 -70 39
-121 88 -142 88 -36 135 52 51 95 -16 8 -34 24 -40 34 -26 50 4 180 75 320 26
52 34 82 35 123 0 29 1 66 1 82 4 73 -100 99 -199 50z m105 -106 c23 -21 23
-22 4 -42 -11 -12 -48 -75 -82 -141 -109 -209 -171 -281 -220 -255 -19 11 -21
19 -17 73 7 112 116 301 206 358 55 35 78 36 109 7z"/>
<path d="M12026 10718 c-18 -17 -32 -47 -47 -108 -55 -219 -228 -476 -279
-415 -18 22 11 108 90 259 39 74 70 141 70 150 0 21 -45 31 -75 18 -13 -6 -58
-55 -101 -109 -197 -249 -304 -342 -304 -262 0 44 85 179 177 282 74 82 82
102 57 128 -17 16 -25 18 -46 10 -59 -22 -199 -206 -266 -349 -30 -64 -36 -89
-37 -143 0 -79 19 -109 70 -109 60 0 137 64 249 208 27 34 50 62 52 62 1 0 -7
-23 -17 -51 -26 -67 -34 -157 -17 -189 7 -13 25 -31 39 -39 85 -48 263 135
395 405 45 91 78 212 67 242 -14 38 -42 41 -77 10z"/>
<path d="M9901 10704 c-67 -34 -172 -138 -236 -233 -115 -175 -135 -319 -55
-396 25 -23 41 -30 90 -33 89 -7 151 27 271 147 96 96 144 166 133 195 -12 32
-41 14 -133 -85 -53 -57 -115 -113 -145 -129 -123 -71 -191 -8 -137 127 63
161 240 358 282 316 14 -14 -12 -66 -53 -109 -61 -65 -12 -113 55 -54 81 71
113 205 62 255 -31 32 -68 32 -134 -1z"/>
<path d="M7739 10660 c-46 -33 -125 -98 -176 -145 -51 -48 -93 -82 -93 -77 0
5 32 54 70 108 78 109 85 137 34 142 -78 8 -232 -238 -333 -536 -33 -94 -33
-125 -4 -137 28 -10 64 27 116 120 61 112 111 180 201 273 69 72 97 90 76 51
-16 -29 -5 -65 25 -85 60 -39 189 6 285 99 43 41 48 58 25 77 -12 10 -22 8
-53 -12 -62 -41 -120 -68 -147 -68 -21 0 -25 5 -25 27 0 22 16 44 70 94 69 65
82 93 58 117 -21 21 -44 13 -129 -48z"/>
<path d="M5545 10698 c-25 -11 -107 -126 -173 -240 -49 -86 -124 -271 -141
-348 -14 -64 33 -107 71 -62 8 9 27 53 43 97 49 139 103 252 180 380 41 69 75
134 75 145 0 25 -29 40 -55 28z"/>
<path d="M9218 10611 c-66 -61 -151 -196 -185 -292 -46 -132 -22 -247 54 -262
50 -9 90 12 152 80 34 36 61 70 61 75 0 5 5 6 10 3 6 -3 10 -20 10 -37 0 -79
71 -158 142 -158 70 0 79 52 18 100 -58 46 -73 80 -68 155 3 50 14 82 56 166
62 125 71 159 47 182 -9 10 -23 17 -32 17 -25 0 -78 -63 -97 -116 -32 -85
-104 -217 -151 -277 -49 -61 -83 -84 -111 -73 -44 17 31 196 144 345 40 52 72
100 72 106 0 18 -22 35 -46 35 -13 0 -45 -21 -76 -49z"/>
<path d="M4632 7653 l3 -38 70 -8 c85 -9 137 -33 146 -67 4 -14 7 -158 8 -319
l1 -295 -32 31 c-128 120 -292 169 -466 139 -243 -42 -410 -247 -458 -560 -19
-118 -14 -290 10 -406 36 -169 149 -332 271 -390 210 -100 467 -34 622 159
l48 61 5 -118 5 -117 238 -3 237 -2 0 39 0 40 -57 6 c-95 11 -132 24 -151 52
-16 25 -17 90 -20 930 l-3 903 -240 0 -240 0 3 -37z m-36 -698 c76 -18 159
-54 219 -95 l45 -31 0 -389 0 -388 -60 -61 c-99 -98 -238 -152 -355 -136 -184
23 -278 186 -292 505 -20 452 140 667 443 595z"/>
<path d="M7490 7651 l0 -38 69 -7 c88 -8 115 -18 138 -53 17 -26 18 -80 21
-935 l3 -908 99 0 98 0 6 28 c23 121 28 142 35 142 4 0 20 -14 37 -31 90 -97
234 -154 384 -153 262 2 456 177 532 479 19 77 22 116 22 265 -1 147 -4 188
-22 253 -65 237 -209 382 -404 407 -200 25 -379 -55 -511 -230 l-27 -35 0 428
0 427 -240 0 -240 0 0 -39z m986 -731 c87 -43 145 -133 180 -285 26 -109 26
-407 1 -508 -34 -138 -97 -229 -187 -271 -34 -16 -65 -21 -130 -21 -104 0
-199 28 -297 89 l-68 42 -3 390 -2 391 69 65 c70 67 150 112 224 128 62 13
163 4 213 -20z"/>
<path d="M14537 7563 c-4 -3 -7 -60 -7 -125 l0 -118 125 0 125 0 0 125 0 125
-118 0 c-65 0 -122 -3 -125 -7z"/>
<path d="M15465 7351 l-110 -27 -3 -122 -3 -122 -99 0 -100 0 0 -50 0 -49 98
-3 97 -3 5 -490 c5 -435 8 -496 24 -545 54 -167 169 -242 371 -244 62 0 106 5
143 18 l52 18 0 48 0 48 -65 -20 c-115 -35 -199 -6 -245 87 l-25 50 -3 518 -3
517 186 0 185 0 0 50 0 50 -185 0 -185 0 0 150 c0 114 -3 150 -12 149 -7 -1
-62 -13 -123 -28z"/>
<path d="M885 7103 c-124 -18 -258 -99 -355 -215 l-49 -59 -3 123 -3 123 -237
3 -238 2 0 -39 c0 -39 0 -39 48 -45 26 -4 69 -11 95 -17 86 -20 82 10 82 -579
0 -474 -1 -518 -17 -543 -19 -28 -56 -41 -151 -52 l-57 -6 0 -40 0 -39 353 2
352 3 3 38 c2 25 -1 37 -10 37 -37 1 -150 21 -172 31 -14 7 -30 25 -36 42 -6
19 -10 184 -10 453 l0 424 78 61 c42 34 104 75 137 90 143 67 276 58 325 -23
36 -59 41 -146 38 -574 -3 -462 -3 -460 -73 -481 -22 -6 -66 -15 -97 -18 l-58
-6 0 -40 0 -39 353 2 352 3 3 38 c2 25 -1 37 -10 37 -37 1 -150 21 -172 31
-17 8 -29 25 -36 48 -6 21 -10 206 -10 450 l0 414 41 36 c132 115 233 163 344
164 120 2 165 -41 186 -178 15 -93 7 -861 -9 -898 -14 -33 -40 -44 -138 -58
l-74 -11 0 -39 0 -39 350 0 350 0 0 39 0 40 -47 6 c-79 10 -141 26 -151 38
-21 27 -24 85 -31 537 -8 537 -8 531 -87 619 -54 60 -112 88 -208 101 -169 24
-359 -64 -505 -232 -33 -38 -51 -41 -51 -9 0 34 -61 141 -98 171 -66 54 -201
88 -297 73z"/>
<path d="M2970 7099 c-92 -11 -209 -41 -304 -77 l-71 -28 0 -124 0 -125 81 -3
80 -3 11 59 c18 94 37 128 90 162 62 40 114 53 188 48 79 -5 132 -33 171 -90
40 -58 54 -132 54 -278 l0 -117 -152 -6 c-258 -9 -416 -63 -523 -178 -173
-188 -118 -496 108 -603 173 -81 370 -41 554 113 l71 59 12 -44 c18 -62 62
-119 112 -146 49 -25 145 -29 216 -9 41 12 42 12 42 56 l0 45 -59 0 c-53 0
-62 3 -84 30 -42 49 -47 106 -47 488 0 196 -4 395 -10 440 -24 214 -147 320
-390 335 -41 3 -109 1 -150 -4z m300 -909 l0 -259 -83 -41 c-176 -87 -323 -54
-402 90 -25 47 -29 65 -29 130 1 213 161 330 467 339 l47 1 0 -260z"/>
<path d="M6050 7104 c-192 -30 -317 -106 -413 -252 -89 -135 -121 -254 -119
-447 1 -231 58 -380 197 -521 136 -137 265 -187 475 -187 120 0 227 20 358 65
l62 22 0 62 0 63 -52 -24 c-101 -46 -173 -60 -318 -60 -125 0 -139 2 -192 27
-156 73 -240 233 -256 488 l-7 110 414 0 414 0 -6 98 c-20 292 -148 489 -352
540 -47 12 -169 21 -205 16z m121 -85 c53 -16 103 -61 129 -114 28 -59 49
-179 50 -287 l0 -88 -281 0 -282 0 6 83 c13 160 60 281 138 351 69 62 151 81
240 55z"/>
<path d="M11861 7099 c-97 -11 -175 -31 -283 -71 l-88 -32 0 -128 0 -128 79 0
79 0 10 60 c16 86 39 129 89 160 61 39 122 54 199 47 89 -7 138 -40 179 -122
29 -57 30 -67 34 -212 l3 -153 -108 0 c-259 0 -460 -63 -563 -176 -59 -64 -87
-122 -101 -206 -42 -265 187 -484 459 -438 107 18 265 103 340 184 l24 26 23
-58 c31 -74 52 -102 99 -128 51 -30 105 -37 178 -23 88 15 93 20 89 68 l-4 41
-55 0 c-46 0 -59 4 -83 28 -45 45 -50 96 -50 510 0 398 -6 474 -44 558 -69
151 -258 223 -505 193z m299 -909 l0 -259 -83 -41 c-178 -89 -326 -54 -402 94
-25 50 -29 69 -28 131 3 209 165 325 466 334 l47 1 0 -260z"/>
<path d="M13569 7099 c-143 -21 -261 -93 -372 -229 l-37 -45 0 128 0 127 -235
0 -235 0 0 -39 0 -39 74 -11 c98 -14 124 -25 139 -58 8 -20 13 -155 15 -495 3
-492 -2 -570 -38 -599 -11 -10 -57 -22 -105 -29 l-85 -12 0 -39 0 -39 353 2
352 3 3 36 3 37 -53 6 c-29 4 -75 12 -102 18 -79 17 -79 13 -84 500 l-4 416
83 62 c191 142 351 183 451 117 81 -54 91 -125 85 -620 -4 -404 -9 -460 -45
-471 -18 -6 -148 -25 -169 -26 -8 0 -13 -15 -13 -40 l0 -40 353 2 352 3 3 36
3 37 -53 6 c-146 18 -154 22 -169 81 -6 22 -14 240 -18 490 -7 434 -8 452 -30
507 -28 71 -99 151 -161 183 -26 13 -76 29 -111 35 -71 11 -71 11 -150 -1z"/>
<path d="M16645 7099 c-84 -9 -218 -44 -314 -82 l-56 -22 -3 -128 -3 -128 83
3 83 3 3 30 c8 78 32 133 74 170 74 63 209 84 293 46 100 -45 137 -133 139
-335 l1 -131 -145 -6 c-326 -15 -511 -100 -595 -274 -27 -54 -29 -70 -30 -165
0 -93 3 -111 27 -162 36 -77 99 -142 172 -178 182 -89 368 -51 571 118 27 23
52 42 55 42 3 0 12 -20 19 -44 14 -50 69 -119 110 -140 47 -25 111 -29 189
-11 69 16 72 18 72 45 0 53 -8 60 -67 60 -43 0 -58 5 -78 24 -45 45 -48 76
-54 546 -7 438 -7 446 -30 505 -32 79 -107 155 -183 183 -51 19 -198 44 -238
41 -8 -1 -51 -5 -95 -10z m303 -906 l2 -253 -41 -26 c-85 -53 -130 -68 -214
-68 -58 -1 -90 4 -116 17 -148 74 -195 269 -101 418 65 102 239 171 417 165
l50 -1 3 -252z"/>
<path d="M9080 7041 c0 -38 1 -39 40 -46 52 -9 85 -36 116 -97 19 -38 447
-1056 484 -1154 7 -17 -25 -58 -211 -263 -120 -134 -219 -245 -219 -247 0 -2
69 -4 153 -4 l152 0 339 753 c442 980 437 970 479 996 19 11 42 21 51 21 12 0
16 10 16 40 l0 40 -197 -2 -198 -3 -3 -36 -3 -36 70 -5 c88 -7 126 -28 116
-66 -10 -43 -61 -164 -230 -545 -114 -258 -161 -354 -167 -343 -18 32 -316
754 -344 833 -22 62 -26 85 -17 94 14 14 83 28 146 29 l48 0 -3 38 -3 37 -307
3 -308 2 0 -39z"/>
<path d="M14307 7074 c-4 -4 -7 -22 -7 -40 0 -32 1 -33 58 -39 94 -11 131 -24
150 -52 16 -25 17 -69 17 -543 0 -474 -1 -518 -17 -543 -19 -28 -56 -41 -151
-52 l-58 -7 3 -36 3 -37 353 -3 352 -2 0 39 0 40 -57 6 c-87 10 -128 23 -149
46 -18 20 -19 49 -24 623 l-5 601 -231 3 c-127 1 -233 -1 -237 -4z"/>
<path d="M7932 2503 c-7 -3 -17 -15 -22 -28 -8 -20 -14 -22 -53 -18 -49 6
-100 -14 -117 -46 -15 -29 -12 -93 5 -118 14 -21 14 -24 -5 -43 -23 -23 -26
-62 -5 -83 12 -13 12 -17 -6 -33 -29 -26 -22 -81 13 -107 33 -25 135 -29 186
-8 42 17 66 62 58 106 -9 46 -25 56 -113 66 -83 11 -99 18 -90 43 5 11 20 16
51 16 60 0 92 16 111 55 18 40 19 62 1 95 -16 28 -5 60 19 60 9 0 15 10 15 25
0 25 -16 31 -48 18z"/>
<path d="M6477 2493 c-4 -3 -7 -96 -7 -205 l0 -198 205 0 205 0 0 205 0 205
-198 0 c-109 0 -202 -3 -205 -7z m323 -198 l0 -125 -125 0 -125 0 0 125 0 125
125 0 125 0 0 -125z"/>
<path d="M7484 2441 c-57 -35 -84 -165 -50 -245 42 -100 190 -105 224 -7 9 27
8 30 -15 36 -28 7 -31 5 -47 -27 -8 -15 -22 -24 -43 -26 -38 -4 -63 26 -63 75
l0 33 90 0 90 0 0 35 c0 113 -98 179 -186 126z"/>
<path d="M8081 2447 c-26 -13 -68 -64 -60 -72 3 -3 19 -7 35 -11 24 -4 31 -1
39 18 7 16 20 24 43 26 27 3 34 -1 42 -23 17 -45 13 -52 -38 -58 -93 -11 -132
-47 -132 -122 0 -77 100 -116 155 -61 l23 24 6 -24 c5 -19 13 -24 38 -24 l31
0 -6 138 c-3 75 -8 145 -12 155 -17 41 -112 61 -164 34z"/>
<path d="M8420 2440 c-24 -24 -30 -25 -30 -5 0 10 -10 15 -30 15 l-30 0 2
-162 3 -163 33 -3 32 -3 0 115 c0 126 8 161 40 171 42 13 49 -8 52 -148 l3
-132 33 -3 32 -3 0 146 c0 142 -1 147 -25 170 -31 32 -86 34 -115 5z"/>
<path d="M7199 2288 l47 -163 29 0 30 0 46 160 46 160 -25 3 c-32 4 -34 0 -63
-114 -13 -52 -26 -94 -30 -94 -4 0 -14 30 -23 68 -38 151 -33 142 -70 142
l-33 0 46 -162z"/>
<path d="M6472 1608 l3 -203 203 -3 202 -2 0 205 0 205 -205 0 -205 0 2 -202z
m328 -3 l0 -125 -125 0 -125 0 0 125 0 125 125 0 125 0 0 -125z"/>
<path d="M7203 1761 c-39 -35 -53 -55 -53 -74 0 -33 5 -33 47 -1 l33 25 0
-150 0 -151 -40 0 c-36 0 -40 -2 -40 -25 l0 -25 110 0 110 0 0 25 c0 22 -4 25
-35 25 l-35 0 0 200 0 200 -22 0 c-13 -1 -46 -22 -75 -49z"/>
<path d="M7497 1792 c-51 -31 -72 -93 -72 -212 0 -90 3 -112 23 -152 50 -101
181 -105 234 -6 20 38 23 57 23 158 0 131 -16 178 -69 211 -38 23 -102 24
-139 1z m93 -42 c28 -15 40 -65 40 -172 0 -123 -15 -168 -58 -168 -56 0 -67
27 -67 164 0 127 11 170 44 179 9 3 17 5 19 6 2 0 12 -3 22 -9z"/>
<path d="M7854 1800 c-63 -25 -104 -147 -89 -268 14 -123 50 -172 132 -179
101 -9 145 53 150 212 4 125 -15 188 -66 222 -35 24 -88 29 -127 13z m71 -46
c34 -14 49 -64 49 -174 0 -127 -16 -170 -64 -170 -44 0 -62 36 -68 130 -6 107
4 167 33 196 27 27 27 27 50 18z"/>
<path d="M8164 1800 c-35 -14 -54 -50 -54 -103 0 -52 20 -101 45 -111 54 -20
108 6 121 59 10 41 -2 115 -22 135 -24 23 -62 32 -90 20z"/>
<path d="M8286 1584 c-58 -119 -106 -218 -106 -220 0 -2 9 -4 21 -4 17 0 39
38 125 215 57 118 104 217 104 220 0 3 -9 5 -19 5 -15 0 -42 -47 -125 -216z"/>
<path d="M10260 1580 l0 -220 35 0 35 0 0 220 0 220 -35 0 -35 0 0 -220z"/>
<path d="M9608 1773 c-13 -3 -18 -15 -18 -44 0 -32 -3 -39 -20 -39 -16 0 -20
-7 -20 -30 0 -23 4 -30 20 -30 19 0 20 -7 20 -115 0 -110 1 -117 25 -141 20
-20 33 -25 68 -22 37 3 42 6 45 30 3 24 -1 27 -30 30 -31 3 -33 6 -40 48 -3
25 -7 73 -7 108 l-1 62 35 0 c32 0 35 2 35 30 0 28 -3 30 -35 30 -35 0 -35 0
-35 45 0 45 -3 48 -42 38z"/>
<path d="M8731 1664 c-40 -33 -41 -60 -2 -66 23 -3 32 1 39 17 22 48 92 30 92
-24 0 -27 -3 -28 -54 -34 -67 -7 -102 -28 -116 -73 -25 -75 22 -140 93 -131
22 3 50 16 63 28 l24 22 0 -21 c0 -18 6 -22 31 -22 l31 0 -4 141 c-3 140 -3
141 -31 165 -41 35 -123 34 -166 -2z"/>
<path d="M9007 1683 c-11 -10 -8 -234 3 -275 6 -21 19 -42 30 -48 33 -18 79
-12 105 15 23 22 25 23 25 5 0 -16 7 -20 30 -20 l30 0 0 166 0 165 -32 -3 -33
-3 -5 -125 c-3 -69 -9 -131 -13 -137 -12 -19 -64 -16 -71 3 -3 9 -6 72 -6 140
l0 124 -28 0 c-16 0 -32 -3 -35 -7z"/>
<path d="M9331 1664 c-26 -21 -31 -33 -31 -68 0 -51 22 -75 93 -101 58 -22 76
-48 51 -76 -9 -10 -28 -19 -41 -19 -22 0 -63 31 -63 49 0 4 -11 6 -25 3 -32
-6 -32 -32 -1 -69 22 -25 31 -28 86 -28 57 0 64 2 91 33 33 37 38 84 14 119
-9 12 -43 32 -76 44 -67 25 -73 31 -65 63 9 35 43 40 73 10 19 -19 32 -24 49
-20 31 8 30 21 -5 57 -40 40 -105 41 -150 3z"/>
<path d="M9767 1683 c-4 -3 -7 -78 -7 -165 l0 -158 34 0 34 0 4 109 c3 119 17
151 65 151 20 0 23 5 23 35 0 30 -3 35 -24 35 -16 0 -34 -12 -50 -32 l-26 -33
0 33 c0 27 -4 32 -23 32 -13 0 -27 -3 -30 -7z"/>
<path d="M9992 1665 c-16 -14 -32 -34 -35 -45 -4 -17 0 -20 27 -20 20 0 35 7
43 19 28 45 93 21 93 -34 0 -22 -5 -25 -32 -25 -62 0 -108 -19 -128 -53 -30
-48 -26 -93 10 -129 27 -27 36 -30 73 -25 25 3 48 14 59 26 20 26 28 26 28 1
0 -16 7 -20 31 -20 l31 0 -4 141 c-3 140 -3 141 -31 165 -40 35 -123 34 -165
-1z"/>
<path d="M10410 1525 l0 -165 35 0 35 0 0 165 0 165 -35 0 -35 0 0 -165z"/>
<path d="M10614 1680 c-23 -9 -54 -47 -54 -66 0 -6 13 -14 29 -16 23 -3 32 1
40 19 6 13 19 24 28 24 48 3 63 -9 63 -53 0 -25 -3 -28 -35 -28 -47 0 -98 -22
-119 -51 -9 -13 -16 -43 -16 -67 0 -85 83 -122 149 -66 30 25 31 25 31 5 0
-17 6 -21 33 -21 l32 0 -3 117 c-3 155 -8 178 -37 197 -26 17 -105 21 -141 6z"/>
<path d="M10870 1525 l0 -165 35 0 35 0 0 124 c0 131 8 156 49 156 35 0 41
-20 41 -152 l0 -128 36 0 36 0 -4 144 c-3 125 -6 147 -22 165 -26 29 -91 29
-123 -1 l-23 -21 0 21 c0 18 -6 22 -30 22 l-30 0 0 -165z"/>
<path d="M8367 1568 c-37 -29 -48 -117 -22 -168 26 -50 94 -57 133 -14 17 20
22 37 22 83 0 76 -25 111 -79 111 -20 0 -45 -6 -54 -12z"/>
<path d="M8635 1170 c-10 -12 -21 -40 -24 -63 -5 -34 -10 -43 -28 -45 -35 -5
-32 -52 2 -52 l25 0 0 -135 0 -135 30 0 30 0 0 135 0 135 30 0 c25 0 30 4 30
25 0 20 -5 25 -24 25 -31 0 -40 14 -32 46 5 17 16 26 36 31 23 4 30 11 30 29
0 22 -4 24 -43 24 -31 0 -49 -6 -62 -20z"/>
<path d="M8160 960 l0 -220 35 0 35 0 0 104 c0 114 12 162 41 171 42 14 49 -9
49 -146 l0 -129 35 0 35 0 0 139 c0 125 -2 141 -21 165 -27 34 -82 36 -116 4
l-23 -21 0 76 0 77 -35 0 -35 0 0 -220z"/>
<path d="M9870 1110 l0 -69 -28 16 c-40 23 -95 11 -122 -27 -50 -71 -45 -217
10 -272 37 -37 90 -38 125 -3 23 22 25 23 25 5 0 -16 7 -20 30 -20 l30 0 0
220 0 220 -35 0 -35 0 0 -70z m-20 -110 c17 -17 20 -33 20 -100 0 -67 -3 -83
-20 -100 -24 -24 -39 -25 -65 -6 -28 20 -35 164 -11 201 20 30 49 32 76 5z"/>
<path d="M10020 960 l0 -220 35 0 35 0 0 220 0 220 -35 0 -35 0 0 -220z"/>
<path d="M8018 1152 c-26 -3 -28 -7 -28 -48 0 -40 -2 -44 -25 -44 -20 0 -25
-5 -25 -25 0 -20 5 -25 25 -25 l25 0 0 -114 c0 -99 3 -117 21 -140 17 -22 28
-26 70 -26 48 0 49 1 49 30 0 27 -3 30 -30 30 -40 0 -50 27 -50 136 l0 84 35
0 c30 0 35 3 35 24 0 21 -6 25 -32 28 -31 3 -33 6 -38 48 -5 42 -7 45 -32 42z"/>
<path d="M6470 920 l0 -200 205 0 205 0 0 200 0 200 -205 0 -205 0 0 -200z
m330 0 l0 -130 -125 0 -125 0 0 130 0 130 125 0 125 0 0 -130z"/>
<path d="M7206 1040 c-79 -70 -70 -251 14 -295 46 -24 103 -19 139 10 36 31
49 64 30 76 -25 16 -44 9 -61 -21 -27 -47 -77 -40 -97 13 -25 64 -21 67 85 67
l96 0 -6 38 c-19 104 -52 142 -125 142 -31 0 -49 -7 -75 -30z"/>
<path d="M7508 1053 c-23 -14 -54 -61 -46 -68 2 -1 15 -5 29 -9 21 -5 30 -1
43 19 11 17 26 25 45 25 24 0 31 -6 40 -31 15 -45 14 -49 -15 -49 -51 0 -115
-23 -134 -48 -30 -37 -27 -106 5 -137 33 -34 92 -34 129 0 24 22 26 23 26 5 0
-16 7 -20 33 -20 l34 0 -4 133 c-5 142 -12 169 -50 186 -35 16 -104 13 -135
-6z"/>
<path d="M7868 1053 c-8 -10 -20 -27 -26 -38 -10 -18 -11 -17 -12 13 0 29 -3
32 -30 32 l-30 0 0 -160 0 -160 35 0 35 0 0 104 c0 89 3 107 21 130 12 15 30
26 45 26 21 0 24 5 24 35 0 30 -3 35 -23 35 -13 0 -31 -8 -39 -17z"/>
<path d="M8856 1039 l-26 -31 0 26 c0 22 -4 26 -30 26 l-30 0 0 -160 0 -160
29 0 28 0 5 104 c6 117 17 144 59 153 25 5 29 10 29 39 0 45 -28 46 -64 3z"/>
<path d="M9149 1053 c-46 -28 -63 -70 -64 -153 0 -117 41 -170 134 -170 62 0
138 77 100 101 -25 16 -44 9 -61 -21 -27 -47 -77 -40 -97 13 -25 64 -21 67 84
67 l96 0 -6 38 c-4 20 -11 52 -17 70 -19 63 -110 92 -169 55z"/>
<path d="M9480 1050 c-16 -16 -20 -17 -20 -5 0 10 -11 15 -35 15 l-35 0 0
-160 0 -160 35 0 35 0 0 109 c0 121 8 156 40 166 43 14 50 -8 50 -146 l0 -129
35 0 35 0 0 139 c0 125 -2 141 -21 165 -26 33 -88 37 -119 6z"/>
<path d="M8950 900 l0 -160 35 0 35 0 0 160 0 160 -35 0 -35 0 0 -160z"/>
<path d="M10130 1055 c0 -3 20 -74 45 -159 37 -122 44 -158 36 -179 -11 -27
-41 -49 -63 -45 -8 2 -13 -7 -13 -22 0 -21 5 -25 35 -28 56 -5 72 22 134 223
31 99 59 188 62 198 4 13 -1 17 -25 17 -27 0 -31 -4 -45 -53 -9 -30 -21 -77
-27 -105 -7 -28 -15 -49 -19 -47 -3 2 -17 49 -30 104 l-24 101 -33 0 c-18 0
-33 -2 -33 -5z"/>
<path d="M7245 450 c-54 -22 -83 -79 -91 -184 -17 -192 73 -305 198 -253 63
26 83 79 83 217 0 131 -15 178 -69 211 -32 20 -86 24 -121 9z m70 -46 c33 -13
47 -62 47 -168 0 -127 -16 -176 -60 -176 -17 0 -37 9 -48 21 -17 18 -19 37
-19 151 l0 130 28 24 c32 27 30 26 52 18z"/>
<path d="M7554 450 c-37 -15 -54 -50 -54 -113 0 -48 4 -62 25 -82 33 -34 83
-34 115 0 49 52 33 173 -26 195 -29 12 -32 12 -60 0z"/>
<path d="M7675 234 c-58 -119 -105 -218 -105 -220 0 -2 9 -4 20 -4 17 0 40 41
125 217 58 119 105 218 105 220 0 1 -9 3 -20 3 -17 0 -40 -40 -125 -216z"/>
<path d="M8370 230 l0 -220 30 0 30 0 1 103 c0 127 13 171 51 175 39 5 48 -25
48 -164 l0 -114 30 0 30 0 0 145 c0 132 -2 147 -20 165 -28 28 -87 27 -117 -2
l-23 -21 0 76 0 77 -30 0 -30 0 0 -220z"/>
<path d="M10160 230 l0 -220 35 0 35 0 0 220 0 220 -35 0 -35 0 0 -220z"/>
<path d="M6470 230 l0 -200 205 0 205 0 0 200 0 200 -205 0 -205 0 0 -200z
m330 0 l0 -130 -125 0 -125 0 0 130 0 130 125 0 125 0 0 -130z"/>
<path d="M8123 316 c-66 -56 -71 -211 -8 -283 20 -24 31 -28 78 -28 63 0 101
26 112 77 8 34 8 34 -25 43 -22 5 -27 2 -38 -29 -11 -30 -18 -36 -43 -36 -25
0 -33 6 -45 35 -29 70 -11 180 32 191 29 7 50 -7 58 -41 5 -18 13 -25 32 -25
31 0 40 22 24 61 -18 42 -47 59 -101 59 -36 0 -55 -6 -76 -24z"/>
<path d="M8711 314 c-17 -14 -35 -42 -41 -62 -14 -53 -12 -137 4 -177 27 -64
112 -93 175 -61 28 15 64 73 55 88 -11 17 -54 8 -65 -14 -7 -13 -17 -26 -23
-30 -37 -25 -86 13 -86 67 l0 35 90 0 90 0 0 38 c0 46 -32 117 -58 131 -39 21
-108 13 -141 -15z"/>
<path d="M8970 175 l0 -165 35 0 35 0 0 124 c0 131 8 156 49 156 35 0 41 -20
41 -152 l0 -128 35 0 35 0 0 118 c0 126 11 162 50 162 32 0 40 -33 40 -159 l0
-121 36 0 36 0 -4 144 c-3 125 -6 147 -22 165 -26 29 -91 29 -122 0 l-22 -21
-21 21 c-29 29 -87 28 -118 -1 l-23 -21 0 21 c0 18 -6 22 -30 22 l-30 0 0
-165z"/>
<path d="M9440 175 l0 -165 30 0 30 0 0 165 0 165 -30 0 -30 0 0 -165z"/>
<path d="M9623 322 c-49 -38 -70 -171 -39 -246 42 -100 183 -101 216 -1 14 41
14 40 -21 48 -22 6 -28 2 -40 -26 -11 -26 -20 -32 -44 -32 -39 0 -55 32 -55
110 0 77 16 110 54 110 28 0 38 -10 50 -47 6 -21 54 -25 62 -5 7 19 -11 62
-37 86 -29 27 -113 29 -146 3z"/>
<path d="M9884 306 c-43 -43 -43 -56 -1 -56 21 0 36 7 45 20 16 27 68 27 82 1
5 -11 10 -29 10 -40 0 -17 -6 -21 -32 -21 -92 0 -148 -45 -148 -118 0 -42 46
-92 85 -92 30 0 81 24 88 42 4 8 8 4 12 -10 6 -16 15 -22 37 -22 l30 0 -4 141
c-3 140 -4 141 -31 165 -22 19 -39 24 -84 24 -49 0 -59 -4 -89 -34z"/>
<path d="M10326 311 c-36 -37 -39 -91 -8 -124 12 -12 44 -31 72 -41 28 -10 55
-26 60 -36 13 -24 -14 -60 -46 -60 -23 0 -64 31 -64 49 0 4 -11 6 -25 3 -32
-6 -32 -32 -1 -69 22 -25 31 -28 86 -28 57 0 64 2 91 33 34 38 39 88 12 121
-10 12 -45 31 -78 44 -54 21 -60 26 -60 51 0 43 38 54 72 20 31 -31 75 -27 66
6 -9 35 -51 60 -102 60 -39 0 -52 -5 -75 -29z"/>
<path d="M7762 223 c-42 -17 -55 -126 -22 -181 28 -45 90 -48 128 -6 39 44 24
170 -23 188 -19 7 -64 7 -83 -1z"/>
</g>
</svg>
