<?xml version="1.0" encoding="UTF-8" standalone="no"?>
<!-- Created with Inkscape (http://www.inkscape.org/) -->

<svg
   xmlns:dc="http://purl.org/dc/elements/1.1/"
   xmlns:cc="http://creativecommons.org/ns#"
   xmlns:rdf="http://www.w3.org/1999/02/22-rdf-syntax-ns#"
   xmlns:svg="http://www.w3.org/2000/svg"
   xmlns="http://www.w3.org/2000/svg"
   xmlns:xlink="http://www.w3.org/1999/xlink"
   xmlns:sodipodi="http://sodipodi.sourceforge.net/DTD/sodipodi-0.dtd"
   xmlns:inkscape="http://www.inkscape.org/namespaces/inkscape"
   width="210mm"
   height="297mm"
   viewBox="0 0 210 297"
   version="1.1"
   id="svg8"
   inkscape:version="0.92.1 r15371"
   sodipodi:docname="scissors.svg">
  <defs
     id="defs2" />
  <sodipodi:namedview
     id="base"
     pagecolor="#ffffff"
     bordercolor="#666666"
     borderopacity="1.0"
     inkscape:pageopacity="0.0"
     inkscape:pageshadow="2"
     inkscape:zoom="0.10101767"
     inkscape:cx="4596.48"
     inkscape:cy="791.72439"
     inkscape:document-units="mm"
     inkscape:current-layer="layer1"
     showgrid="false"
     showborder="false"
     inkscape:window-width="1920"
     inkscape:window-height="1001"
     inkscape:window-x="-9"
     inkscape:window-y="-9"
     inkscape:window-maximized="1"
     inkscape:object-paths="true"
     inkscape:snap-intersection-paths="true"
     inkscape:snap-smooth-nodes="true"
     inkscape:object-nodes="false"
     inkscape:snap-nodes="false" />
  <metadata
     id="metadata5">
    <rdf:RDF>
      <cc:Work
         rdf:about="">
        <dc:format>image/svg+xml</dc:format>
        <dc:type
           rdf:resource="http://purl.org/dc/dcmitype/StillImage" />
        <dc:title />
      </cc:Work>
    </rdf:RDF>
  </metadata>
  <g
     inkscape:label="Layer 1"
     inkscape:groupmode="layer"
     id="layer1">
    <path
       style="fill:none;stroke:#000000;stroke-width:7.9375;stroke-linecap:butt;stroke-linejoin:miter;stroke-miterlimit:4;stroke-dasharray:none;stroke-opacity:1"
       d="M 199.77462,204.66571 -360.3133,135.5454 c -271.603,-20.9822 -447.9345,22.8569 -447.9345,22.8569 0,0 82.5618,17.2236 156.6347,33.1196 74.073,15.896 289.24336,31.95039 404.56346,55.31849"
       id="path3771"
       inkscape:connector-curvature="0"
       sodipodi:nodetypes="cccsc" />
    <path
       id="path4359"
       transform="scale(0.26458333)"
       style="fill:none;stroke:#000000;stroke-width:30;stroke-linecap:butt;stroke-linejoin:miter;stroke-miterlimit:4;stroke-dasharray:none;stroke-opacity:1;fill-opacity:1"
       d="m 391.91797,1292.1152 v 0 c 443.34989,81.7641 484.14454,79.3167 932.08003,138.8125 651.8177,-818.53142 660.3282,-107.9785 660.3282,-107.9785 224.6914,605.7853 812.8535,541.9024 812.8535,541.9024 1015.5167,-6.6085 922.9961,-652.0469 922.9961,-652.0469 C 3612.2359,816.29064 3339.082,869.16015 3339.082,869.16015 c -182.8373,83.70859 -447.1797,96.92578 -447.1797,96.92578 -376.6885,-15.4201 -808.4472,-114.54883 -808.4472,-114.54883 -581.554,-77.1001 -927.4043,235.7051 -927.4043,235.7051 l -110.1426,-77.0996 m 1134.2227,52.4433 c 38.7969,-0.077 97.8298,15.9883 187.2714,61.8438 494.2961,184.8416 787.1348,24.9238 787.1348,24.9238 0,0 294.9157,-207.68812 336.4531,141.2266 41.5374,348.9146 -558.6777,421.6054 -558.6777,421.6054 -845.2883,-18.692 -822.4434,-558.6777 -822.4434,-558.6777 0,0 -21.6256,-90.739 70.2618,-90.9219 v 0" />
    <path
       id="path3765"
       transform="scale(0.26458333)"
       style="fill:none;stroke:#000000;stroke-width:30;stroke-linecap:butt;stroke-linejoin:miter;stroke-miterlimit:4;stroke-dasharray:none;stroke-opacity:1"
       d="m 1045.9082,1010.1426 38.3279,-43.9159 c 50.3234,-58.88776 696.3793,-790.71663 1316.428,-539.84194 0,0 259.9382,127.7674 284.1699,255.5332 0,0 80.4051,68.28792 151.998,-68.28906 l 68.2871,-74.89844 c 0,0 634.4233,-215.87898 568.3379,-585.958975 -66.0858,-370.079595 -409.7324,-394.310535 -409.7324,-394.310535 0,0 -73.947,-9.74907 -179.959,-9.94336 -165.3787,-0.3031 -408.7884,22.64269 -571.2148,142.11327 0,0 -218.0824,200.46063 -207.5488,447.5 0,0 -448.929,102.59017 -732.4219,320.6621 C 1089.0868,676.86452 799.36327,760.97851 799.36327,760.97851 241.72311,922.97471 -238.35547,913.21679 -238.35547,913.21679 -1983.0179,939.6508 -3009.5508,1124.6914 -3009.5508,1124.6914 c 0,0 599.4348,308.4066 3401.46877,167.4238 z M 2890.7246,-272.56445 a 308.89854,473.74402 78.912843 0 1 375.4688,231.865232 308.89854,473.74402 78.912843 0 1 -416.7481,389.554688 308.89854,473.74402 78.912843 0 1 -515.4082,-220.50977 308.89854,473.74402 78.912843 0 1 416.75,-389.55664 308.89854,473.74402 78.912843 0 1 139.9375,-11.35351 v 0" />
    <path
       style="fill:none;stroke:#000000;stroke-width:7.9375;stroke-linecap:butt;stroke-linejoin:miter;stroke-miterlimit:4;stroke-dasharray:none;stroke-opacity:1"
       d="m -796.2768,297.5746 c 0,0 391.6677,27.9763 817.1405,-10.4911 0,0 3.5497,-50.0599 4.945,-50.201"
       id="path3769"
       inkscape:connector-curvature="0" />
    <path
       inkscape:connector-curvature="0"
       id="path6398"
       d="m -796.2768,297.5746 c 0,0 391.6677,27.9763 817.1405,-10.4911 0,0 3.5497,-50.0599 4.945,-50.201"
       style="fill:none;stroke:#000000;stroke-width:7.9375;stroke-linecap:butt;stroke-linejoin:miter;stroke-miterlimit:4;stroke-dasharray:none;stroke-opacity:1" />
    <path
       style="opacity:0.95;vector-effect:none;fill:none;fill-opacity:1;fill-rule:evenodd;stroke:#ff0000;stroke-width:68.03149414;stroke-linecap:round;stroke-linejoin:round;stroke-miterlimit:4;stroke-dasharray:none;stroke-dashoffset:0;stroke-opacity:1;paint-order:markers fill stroke"
       d="M 373.50781 -3924.4004 A 4773.6368 4773.6368 0 0 0 -3554.1074 -1854.793 L -2902.0859 -1478.3477 A 4021.2933 4021.2933 0 0 1 373.50781 -3172.0566 A 4021.2933 4021.2933 0 0 1 3647.3008 -1477.3105 L 4305.0664 -1857.0723 A 4773.6368 4773.6368 0 0 0 373.50781 -3924.4004 z M -3932.541 -1200.4355 A 4773.6368 4773.6368 0 0 0 -4400.1289 849.23633 A 4773.6368 4773.6368 0 0 0 -3931.4648 2898.2949 L -3278.3516 2521.2207 A 4021.2933 4021.2933 0 0 1 -3647.7871 849.23633 A 4021.2933 4021.2933 0 0 1 -3278.9688 -823.0957 L -3932.541 -1200.4355 z M 4678.4824 -1199.8184 L 4025.3672 -822.74219 A 4021.2933 4021.2933 0 0 1 4394.8008 849.23633 A 4021.2933 4021.2933 0 0 1 4025.9785 2521.5762 L 4679.5527 2898.918 A 4773.6368 4773.6368 0 0 0 5147.1445 849.23633 A 4773.6368 4773.6368 0 0 0 4678.4824 -1199.8184 z M -2900.2852 3175.7871 L -3558.0488 3555.5469 A 4773.6368 4773.6368 0 0 0 373.50781 5622.873 A 4773.6368 4773.6368 0 0 0 4301.1191 3553.2695 L 3649.0977 3176.8242 A 4021.2933 4021.2933 0 0 1 373.50781 4870.5293 A 4021.2933 4021.2933 0 0 1 -2900.2852 3175.7871 z "
       transform="scale(0.26458333)"
       id="path4341" />
    <path
       style="opacity:1;fill:#ffffff;fill-opacity:1;stroke:#000000;stroke-width:7.9375;stroke-linecap:round;stroke-linejoin:round;stroke-miterlimit:4;stroke-dasharray:none;stroke-dashoffset:0;stroke-opacity:1;paint-order:normal"
       d="M 67.393585,263.09708 V 292.7924 A 15.542377,15.542377 0 0 0 78.370089,277.9525 15.542377,15.542377 0 0 0 67.393585,263.09708 Z m -9.131299,0.0151 a 15.542377,15.542377 0 0 0 -10.977034,14.84045 15.542377,15.542377 0 0 0 10.977034,14.8554 z"
       id="path6410"
       inkscape:connector-curvature="0" />
    <path
       style="opacity:0.95;vector-effect:none;fill:none;fill-opacity:1;fill-rule:evenodd;stroke:#ffff00;stroke-width:18;stroke-linecap:round;stroke-linejoin:round;stroke-miterlimit:4;stroke-dasharray:none;stroke-dashoffset:0;stroke-opacity:1;paint-order:markers fill stroke"
       d="M 1065.8812,224.69374 A 967.05748,967.05748 0 0 1 98.823731,1191.7512 967.05748,967.05748 0 0 1 -868.23369,224.69374 967.05748,967.05748 0 0 1 98.823731,-742.36368 967.05748,967.05748 0 0 1 1065.8812,224.69374 Z"
       id="path4343"
       inkscape:connector-curvature="0" />
    <text
       xml:space="preserve"
       style="font-style:normal;font-variant:normal;font-weight:normal;font-stretch:normal;font-size:317.5px;line-height:1.25;font-family:'18thCentury';-inkscape-font-specification:'18thCentury, Normal';font-variant-ligatures:normal;font-variant-caps:normal;font-variant-numeric:normal;font-feature-settings:normal;text-align:start;letter-spacing:-3.16357398px;word-spacing:0px;writing-mode:lr;text-anchor:start;fill:#000000;fill-opacity:1;stroke:none;stroke-width:0.26458335;"
       id="text4370"><textPath
         xlink:href="#path4372"
         id="textPath4374"><tspan
   style="font-style:normal;font-variant:normal;font-weight:normal;font-stretch:normal;font-size:317.5px;font-family:'18thCentury';-inkscape-font-specification:'18thCentury, Normal';font-variant-ligatures:normal;font-variant-caps:normal;font-variant-numeric:normal;font-feature-settings:normal;text-align:start;writing-mode:lr;text-anchor:start;stroke-width:0.26458335;"
   id="tspan4368">the upcycling room</tspan></textPath></text>
    <path
       id="path4372"
       d="M -768.51954,-391.53794 A 1063.9672,1063.9672 0 0 1 715.05559,-642.64965 1063.9672,1063.9672 0 0 1 966.16731,840.92547 1063.9672,1063.9672 0 0 1 -517.40782,1092.0372 1063.9672,1063.9672 0 0 1 -768.51954,-391.53794 Z"
       style="opacity:0.95;vector-effect:none;fill:none;fill-opacity:1;fill-rule:evenodd;stroke:#ececec;stroke-width:18;stroke-linecap:round;stroke-linejoin:round;stroke-miterlimit:4;stroke-dasharray:none;stroke-dashoffset:0;stroke-opacity:1;paint-order:markers fill stroke"
       inkscape:connector-curvature="0" />
  </g>
</svg>
